<svg width="326" height="184" viewBox="0 0 326 184" fill="none" xmlns="http://www.w3.org/2000/svg">
<path d="M86.664 147H104.84C104.456 132.28 104.456 118.328 104.456 106.808V96.696C104.456 81.72 104.456 66.744 104.84 52.28H86.664C87.048 67 87.048 81.72 87.048 96.696V102.712C87.048 117.688 87.048 132.664 86.664 147ZM74.76 147H115.848V142.904L97.8 140.984H94.344L74.76 142.904V147ZM74.76 56.504L94.344 58.168H97.8L116.872 56.504V52.28H74.76V56.504ZM128.264 147H166.92V142.904L149.384 140.984H146.44L128.264 142.904V147ZM129.672 56.504L144.776 58.424L148.232 58.168L162.568 56.504V52.28H129.672V56.504ZM95.368 122.68L154.376 52.28H147.72L100.232 110.52L97.288 114.36H94.984L95.368 122.68ZM140.808 147H160.648L125.96 83.768L114.44 97.208L140.808 147ZM170.164 147H199.092V142.904L185.268 141.112H182.836L170.164 142.904V147ZM178.996 147H185.396L211.252 64.824L211.636 63.032H208.948L235.956 147H254.516L222.004 51.768H210.868L178.996 147ZM193.204 116.152H235.572L234.676 111.928H194.1L193.204 116.152ZM221.108 147H262.708V142.776L244.916 140.984H238.388L221.108 142.776V147Z" fill="#040F16"/>
<rect x="49" y="83" width="221" height="25" fill="white"/>
<path d="M59.1725 98.62L59.0725 96.18L67.0125 88H69.2925L63.1525 94.48L62.0325 95.72L59.1725 98.62ZM57.4125 102V88H59.4125V102H57.4125ZM67.3325 102L61.5925 95.32L62.9325 93.84L69.6725 102H67.3325ZM71.1011 102L77.4411 88H79.4211L85.7811 102H83.6811L78.0211 89.12H78.8211L73.1611 102H71.1011ZM73.8011 98.5L74.3411 96.9H82.2211L82.8011 98.5H73.8011ZM91.9464 102V89.74H87.1464V88H98.7264V89.74H93.9264V102H91.9464ZM109.029 102.16C107.963 102.16 106.969 101.98 106.049 101.62C105.143 101.26 104.356 100.76 103.689 100.12C103.023 99.4667 102.503 98.7067 102.129 97.84C101.756 96.9733 101.569 96.0267 101.569 95C101.569 93.9733 101.756 93.0267 102.129 92.16C102.503 91.2933 103.023 90.54 103.689 89.9C104.356 89.2467 105.143 88.74 106.049 88.38C106.956 88.02 107.949 87.84 109.029 87.84C110.096 87.84 111.076 88.02 111.969 88.38C112.876 88.7267 113.663 89.2267 114.329 89.88C115.009 90.52 115.529 91.2733 115.889 92.14C116.263 93.0067 116.449 93.96 116.449 95C116.449 96.04 116.263 96.9933 115.889 97.86C115.529 98.7267 115.009 99.4867 114.329 100.14C113.663 100.78 112.876 101.28 111.969 101.64C111.076 101.987 110.096 102.16 109.029 102.16ZM109.029 100.38C109.803 100.38 110.516 100.247 111.169 99.98C111.836 99.7133 112.409 99.34 112.889 98.86C113.383 98.3667 113.763 97.7933 114.029 97.14C114.309 96.4867 114.449 95.7733 114.449 95C114.449 94.2267 114.309 93.5133 114.029 92.86C113.763 92.2067 113.383 91.64 112.889 91.16C112.409 90.6667 111.836 90.2867 111.169 90.02C110.516 89.7533 109.803 89.62 109.029 89.62C108.243 89.62 107.516 89.7533 106.849 90.02C106.196 90.2867 105.623 90.6667 105.129 91.16C104.636 91.64 104.249 92.2067 103.969 92.86C103.703 93.5133 103.569 94.2267 103.569 95C103.569 95.7733 103.703 96.4867 103.969 97.14C104.249 97.7933 104.636 98.3667 105.129 98.86C105.623 99.34 106.196 99.7133 106.849 99.98C107.516 100.247 108.243 100.38 109.029 100.38ZM121.506 102V88H126.966C128.193 88 129.24 88.1933 130.106 88.58C130.973 88.9667 131.64 89.5267 132.106 90.26C132.573 90.9933 132.806 91.8667 132.806 92.88C132.806 93.8933 132.573 94.7667 132.106 95.5C131.64 96.22 130.973 96.7733 130.106 97.16C129.24 97.5467 128.193 97.74 126.966 97.74H122.606L123.506 96.82V102H121.506ZM130.866 102L127.306 96.92H129.446L133.046 102H130.866ZM123.506 97.02L122.606 96.04H126.906C128.186 96.04 129.153 95.7667 129.806 95.22C130.473 94.66 130.806 93.88 130.806 92.88C130.806 91.88 130.473 91.1067 129.806 90.56C129.153 90.0133 128.186 89.74 126.906 89.74H122.606L123.506 88.74V97.02ZM143.289 102L149.629 88H151.609L157.969 102H155.869L150.209 89.12H151.009L145.349 102H143.289ZM145.989 98.5L146.529 96.9H154.409L154.989 98.5H145.989ZM168.182 102.16C167.102 102.16 166.108 101.987 165.202 101.64C164.295 101.28 163.508 100.78 162.842 100.14C162.175 99.4867 161.655 98.7267 161.282 97.86C160.908 96.9933 160.722 96.04 160.722 95C160.722 93.96 160.908 93.0067 161.282 92.14C161.655 91.2733 162.175 90.52 162.842 89.88C163.522 89.2267 164.315 88.7267 165.222 88.38C166.128 88.02 167.128 87.84 168.222 87.84C169.328 87.84 170.342 88.02 171.262 88.38C172.182 88.74 172.962 89.28 173.602 90L172.362 91.24C171.788 90.68 171.162 90.2733 170.482 90.02C169.815 89.7533 169.088 89.62 168.302 89.62C167.502 89.62 166.755 89.7533 166.062 90.02C165.382 90.2867 164.788 90.66 164.282 91.14C163.788 91.62 163.402 92.1933 163.122 92.86C162.855 93.5133 162.722 94.2267 162.722 95C162.722 95.76 162.855 96.4733 163.122 97.14C163.402 97.7933 163.788 98.3667 164.282 98.86C164.788 99.34 165.382 99.7133 166.062 99.98C166.742 100.247 167.482 100.38 168.282 100.38C169.028 100.38 169.742 100.267 170.422 100.04C171.115 99.8 171.755 99.4067 172.342 98.86L173.482 100.38C172.788 100.967 171.975 101.413 171.042 101.72C170.122 102.013 169.168 102.16 168.182 102.16ZM171.562 100.12V94.92H173.482V100.38L171.562 100.12ZM177.191 102L183.531 88H185.511L191.871 102H189.771L184.111 89.12H184.911L179.251 102H177.191ZM179.891 98.5L180.431 96.9H188.311L188.891 98.5H179.891ZM200.039 102.16C198.973 102.16 197.953 102 196.979 101.68C196.006 101.347 195.239 100.92 194.679 100.4L195.419 98.84C195.953 99.3067 196.633 99.6933 197.459 100C198.286 100.307 199.146 100.46 200.039 100.46C200.853 100.46 201.513 100.367 202.019 100.18C202.526 99.9933 202.899 99.74 203.139 99.42C203.379 99.0867 203.499 98.7133 203.499 98.3C203.499 97.82 203.339 97.4333 203.019 97.14C202.713 96.8467 202.306 96.6133 201.799 96.44C201.306 96.2533 200.759 96.0933 200.159 95.96C199.559 95.8267 198.953 95.6733 198.339 95.5C197.739 95.3133 197.186 95.08 196.679 94.8C196.186 94.52 195.786 94.1467 195.479 93.68C195.173 93.2 195.019 92.5867 195.019 91.84C195.019 91.12 195.206 90.46 195.579 89.86C195.966 89.2467 196.553 88.76 197.339 88.4C198.139 88.0267 199.153 87.84 200.379 87.84C201.193 87.84 201.999 87.9467 202.799 88.16C203.599 88.3733 204.293 88.68 204.879 89.08L204.219 90.68C203.619 90.28 202.986 89.9933 202.319 89.82C201.653 89.6333 201.006 89.54 200.379 89.54C199.593 89.54 198.946 89.64 198.439 89.84C197.933 90.04 197.559 90.3067 197.319 90.64C197.093 90.9733 196.979 91.3467 196.979 91.76C196.979 92.2533 197.133 92.6467 197.439 92.94C197.759 93.2333 198.166 93.4667 198.659 93.64C199.166 93.8133 199.719 93.9733 200.319 94.12C200.919 94.2533 201.519 94.4067 202.119 94.58C202.733 94.7533 203.286 94.98 203.779 95.26C204.286 95.54 204.693 95.9133 204.999 96.38C205.306 96.8467 205.459 97.4467 205.459 98.18C205.459 98.8867 205.266 99.5467 204.879 100.16C204.493 100.76 203.893 101.247 203.079 101.62C202.279 101.98 201.266 102.16 200.039 102.16ZM220.421 88H222.421V102H220.421V88ZM212.381 102H210.381V88H212.381V102ZM220.601 95.76H212.181V94.02H220.601V95.76ZM234.412 102.16C232.572 102.16 231.125 101.633 230.072 100.58C229.018 99.5267 228.492 97.9867 228.492 95.96V88H230.492V95.88C230.492 97.44 230.832 98.58 231.512 99.3C232.205 100.02 233.178 100.38 234.432 100.38C235.698 100.38 236.672 100.02 237.352 99.3C238.045 98.58 238.392 97.44 238.392 95.88V88H240.332V95.96C240.332 97.9867 239.805 99.5267 238.752 100.58C237.712 101.633 236.265 102.16 234.412 102.16ZM244.019 102L250.359 88H252.339L258.699 102H256.599L250.939 89.12H251.739L246.079 102H244.019ZM246.719 98.5L247.259 96.9H255.139L255.719 98.5H246.719Z" fill="#040F16"/>
</svg>
