<svg width="391" height="780" viewBox="0 0 391 780" fill="none" xmlns="http://www.w3.org/2000/svg">
<path fill-rule="evenodd" clip-rule="evenodd" d="M279.895 717.588C280.456 715.325 279.542 712.387 279.015 709.446C278.196 704.871 276.261 698.241 272.574 696.168C271.921 694.442 249.826 680.53 240.366 673.583C235.507 670.014 235.486 663.373 234.501 663.451C232.628 658.853 232.387 654.314 231.237 648.989C235.511 648.429 242.811 649.436 246.179 647.008C246.783 647.048 246.774 640.468 246.862 639.539C244.324 632.678 238.087 464.802 244.324 384.839C244.984 375.939 246.705 365.98 245.005 356.799C247.789 356.189 249.457 353.311 249.467 353.195C256.124 340.153 245.912 295.805 239.513 283.527C244.595 283.395 251.289 282.705 254.435 278.47C255.925 277.981 256.864 277.128 257.587 275.759C258.419 274.454 259.192 273.085 259.887 271.682C263.274 264.661 265.363 256.866 264.233 249.131C264.449 249.063 265.557 249.056 265.612 248.746C265.721 246.844 265.371 245.169 264.799 243.373C258.984 223.143 251.984 203.226 242.731 184.18C238.095 173.987 228.502 170.267 218.563 166.44C213.781 164.565 208.998 162.401 204.007 161.173C203.944 160.824 204.242 159.764 203.588 159.851C202.781 160.019 202.94 161.315 202.64 162.042C191.101 152.614 198.419 147.756 191.461 142.593C184.261 138.863 179.993 138.711 172.055 139.519C169.126 139.603 166.783 140.921 166.092 143.863C163.575 149.95 157.677 154.431 151.242 155.804C150.71 154.86 149.248 152.15 148.429 153.005C139.135 153.322 121.176 160.649 112.477 163.197C103.744 165.423 103.855 167.795 101.57 177.265C97.425 194.14 98.2019 257.519 109.02 270.875C109.02 270.875 114.902 274.796 117.856 275.759C117.79 282.003 118.837 291.304 117.856 297.411C115.647 308.485 112.954 319.605 110.493 330.739C110.482 331.979 100.633 350.365 105.249 346.962C106.202 347.43 107.877 349.394 108.903 349.831C103.999 360.987 104.902 374.681 105.249 388.463C105.336 396.67 103.415 405.663 101.57 414.068C87.9236 485.28 78.6665 566.138 73.5991 637.471C73.3925 640.392 73.2569 642.622 73.1591 644.699C73.0584 645.41 74.0214 645.396 74.3788 645.035L74.8721 644.556C75.4214 644.713 76.2994 644.952 76.8561 645.103C76.9268 647.439 76.6951 649.864 76.4122 651.994C76.1522 654.029 72.8382 662.919 73.5991 664.905C71.073 664.771 66.3305 668.909 64.068 673.385C62.9076 674.422 63.3372 676.255 62.486 677.849C60.763 679.505 42.7744 689.936 42.7744 689.936C38.3683 693.454 26.0735 703.787 27.2301 706.623C27.2301 706.623 27.0999 707.51 27.0562 707.805C24.6234 721.933 28.6745 721.342 41.7815 723.42C60.9284 726.791 79.0379 716.568 95.2195 707.903C100.597 704.283 105.835 705.244 105.249 700.873C104.188 695.476 103.999 676.156 97.8618 676.592C98.8711 675.487 98.6182 665.346 97.8618 663.451C97.3813 658.57 101.806 654.013 101.57 648.989C104.141 649.179 109.394 650.382 110.493 647.521C110.443 647.232 109.229 647.238 109.02 647.169L109.042 647.008L108.903 646.975C119.607 609.321 145.683 436.403 173.996 423.13C174.171 424.549 177.286 422.866 179.173 423.13C187.93 491.319 197.956 555.595 203.305 628.529C203.84 630.692 205.077 645.779 205.599 648.282C205.599 648.282 207.239 649.633 208.206 649.901C208.498 657.596 207.508 673.654 207.474 673.671L206.962 674.921C203.979 681.634 201.757 690.615 205.599 697.194C202.748 696.986 201.503 699.412 201.376 701.932C199.695 712.982 244.118 722.788 254.435 723.42C257.825 724.011 281.99 719.709 279.895 717.588Z" fill="#694D3D"/>
<path d="M108.693 349.339L110.489 350.045C150.93 365.931 197.279 369.29 242.57 360.42L243.942 360.147L246.278 359.677L245.928 363.647C241.294 416.394 238.662 461.046 238.02 503.784C237.272 553.695 239.323 599.89 244.614 644.06L244.775 645.398L244.941 646.76L243.662 647.264C240.422 648.543 237.027 649.256 232.271 649.83L231.369 649.937C224.843 650.701 217.922 650.921 210.229 650.693L209.775 650.679L209.151 650.658L209.129 650.698L208.255 650.626L207.727 650.607L207.716 650.581L207.343 650.551L207.214 650.542L207.039 650.532L204.659 650.432L205.36 648.218C205.86 646.642 205.976 644.931 205.725 643.135L205.688 642.89L205.683 642.817C205.32 637.605 181.282 446.766 181.282 446.766C180.847 443.426 176.915 425.246 175.11 422.78L175.046 422.693L175.045 422.693L175.009 422.683C174.922 422.664 174.779 422.661 174.579 422.69C174.001 422.774 173.206 423.091 172.292 423.606C170.878 424.403 169.221 425.673 168.353 426.508L168.252 426.606L168.126 426.787C163.853 432.903 160.211 439.804 156.882 447.838L156.716 448.241L156.553 448.639C153.938 455.051 145.659 481.322 145.659 481.322C144.04 486.636 111.073 623.239 111.073 623.239C109.555 630.225 108.376 635.611 107.234 640.765L106.681 643.254L105.208 649.842L103.144 649.745C101.294 649.653 99.4946 649.531 96.9944 649.333L95.9693 649.251L91.7773 648.907C84.9604 648.357 81.4577 648.175 77.4164 648.243L77.152 648.248L75.026 648.294L75.054 646.49L74.4324 646.316L74.1958 646.166L73.0898 645.643L73.1777 644.43C78.8986 565.454 88.6424 488.614 102.586 413.968L102.992 411.801L103.022 411.423C103.363 406.994 103.99 376.911 104.411 371.847L104.46 371.275C105.092 364.01 106.214 357.595 108.031 351.52L108.132 351.183L108.693 349.339Z" fill="#AE5D29"/>
<path fill-rule="evenodd" clip-rule="evenodd" d="M207.555 676.801C206.68 680.069 208.271 681.703 212.328 681.703C218.414 681.703 222.272 672.369 225.281 671.3L237.515 664.813C239.275 664.169 241.509 672.912 249.865 678.797C259.166 685.347 271.475 693.881 271.996 695.257C278.052 698.663 280.162 703.276 278.728 709.06C280.824 711.181 284.685 718.483 280.749 719.218C277.711 719.938 261.924 724.95 258.535 724.359C248.218 723.727 202.049 710.422 200.425 705.49L200.435 705.256C200.528 702.647 200.181 697.5 202.947 697.701C199.182 691.255 203.281 684.487 206.253 677.901L206.434 677.498L206.524 677.703C206.558 677.686 207.221 677.025 207.256 677.082C207.297 677.026 207.395 676.924 207.521 676.801L207.555 676.801ZM80.4972 670.764L80.5386 670.905C81.2404 673.322 83.1604 681.703 85.4257 681.703C86.9667 681.703 90.7678 684.542 93.0293 682.636L93.2905 682.396C95.2762 680.579 96.8792 679.355 98.0994 678.723C100.757 678.855 101.648 679.888 100.772 681.821L100.847 682.365C101.473 686.868 100.936 691.028 101.002 691.508C101.976 694.713 105.91 699.331 104.521 702.024C102.364 706.208 93.741 708.02 90.4694 710.222C74.2879 718.887 59.9782 725.372 40.8313 722.001L39.6761 721.82C27.487 719.917 23.7462 719.616 26.106 705.912L26.1224 705.787C26.1757 705.346 26.2799 704.256 26.2799 704.256C25.7624 702.987 29.5264 697.36 35.8358 692.69C43.6282 686.922 60.6045 676.302 61.5566 675.387C62.4078 673.794 65.0021 671.527 66.1625 670.491C68.425 666.015 67.4532 664.206 69.6008 663.696C73.2228 664.288 79.853 668.621 80.4972 670.764Z" fill="white"/>
<path fill-rule="evenodd" clip-rule="evenodd" d="M275.833 718.501C270.233 719.783 264.769 721.901 259.24 723.153C241.231 721.828 223.551 715.781 207.754 708.317C203.175 706.317 200.49 702.767 202.537 698.213C209.238 706.479 234.042 712.23 245.398 715.791C252.46 717.338 260.48 720.834 267.611 717.571C272.13 716.8 277.274 714.637 279.013 710.576C279.133 712.307 278.955 714.028 278.804 715.753C278.981 717.871 277.946 718.158 275.833 718.501V718.501ZM208.957 648.844C208.808 648.492 208.338 648.484 208.159 648.804C207.817 648.776 207.452 648.742 207.088 648.726C207.712 646.758 207.799 644.699 207.49 642.666C207.098 637.062 206.65 631.462 206.176 625.864C201.286 572.22 195.652 518.415 186.047 465.361C186.162 465.28 186.238 465.154 186.218 464.993C185.736 461.234 184.718 457.569 184.008 453.848C183.291 450.095 182.686 446.323 182.025 442.56C181.828 441.437 181.627 440.312 181.418 439.189C181.568 436.46 180.908 433.59 180.56 430.946C180.315 429.09 179.962 427.191 179.475 425.335C179.68 424.711 179.573 423.97 179.07 423.5C179.063 423.493 179.056 423.488 179.049 423.481C179.087 423.358 179.128 423.24 179.172 423.13C179.518 422.277 180.267 421.896 180.808 421.289C182.362 421.008 183.951 420.931 185.518 421.18C185.752 421.223 185.926 420.901 185.69 420.774C179.393 417.097 171.554 420.642 166.909 425.436C152.636 445.68 147.474 471.385 139.587 494.612C125.31 545.134 115.295 596.814 103.826 647.969C94.754 647.548 85.703 646.227 76.6112 646.454C76.2697 645.684 75.6827 644.861 74.9835 644.53C80.6324 566.548 90.3384 488.856 104.789 412.007C106.393 391.877 103.884 371.355 109.866 351.671C152.32 368.349 199.792 370.831 244.324 361.862C235.997 456.114 231.599 551.351 243.036 645.583C239.381 647.026 235.455 647.646 231.567 648.099C224.092 649.001 216.472 649.115 208.957 648.844V648.844ZM95.9956 671.059C95.3233 672.362 96.0364 673.719 97.4457 674.089C93.23 675.199 92.448 679.675 89.125 681.717C88.8137 681.129 87.9333 681.03 87.3443 680.859C85.5691 674.271 83.5198 666.518 75.2029 664.095C75.7321 663.42 75.6589 662.623 75.6342 661.824C76.2522 658.689 78.4772 651.69 77.0988 648.094C84.7405 649.832 92.5848 650.544 100.333 651.67C98.7566 657.391 97.4208 666.03 95.9956 671.059V671.059ZM101.311 698.924C101.561 698.856 101.811 698.787 102.056 698.713C103.275 704.05 95.0129 705.791 90.9378 707.685C84.7963 710.225 78.6622 712.775 72.5426 715.344C60.1516 721.548 48.5139 723.295 34.7392 718.873C25.9733 717.197 27.6409 715.524 26.3559 708.775C35.1451 720.573 53.1497 715.509 64.3266 710.409C74.4852 706.526 84.7175 702.797 95.2268 699.53C97.3265 700.055 99.3273 699.507 101.311 698.924V698.924ZM190.546 267.642C185.253 269.073 179.887 269.814 174.506 270.875C174.975 267.427 175.664 263.981 175.677 260.489C180.386 263.357 185.392 265.701 190.546 267.642V267.642ZM140.609 232.773C151.919 230.42 163.895 231.279 174.582 235.75C178.251 236.968 183.209 240.141 187.019 238.672C184.193 247.624 187.752 256.847 191.434 264.994C182.983 262.182 175.543 257.235 167.849 252.897C170.73 249.113 144.531 244.526 141.687 244.626C140.88 240.712 139.918 236.831 139.075 232.922C139.545 233.098 140.129 232.863 140.609 232.773V232.773ZM199.054 237.007C199.114 237.051 199.159 237.109 199.179 237.185C210.25 238.715 221.367 243.743 232.734 242.286C240.414 241.297 236.878 245.679 231.763 245.515C220.223 246.669 209.523 239.86 198.787 237.539L199.054 237.007ZM205.096 163.015C205.069 163.136 205.041 163.257 205.016 163.379C204.902 163.379 204.788 163.367 204.67 163.334C204.596 163.262 204.526 163.189 204.454 163.116C204.664 163.057 204.881 163.021 205.096 163.015V163.015ZM283.124 716.242C282.965 713.569 281.559 710.891 279.547 709.093C280.89 703.606 278.2 696.617 272.461 694.255C270.9 691.702 267.512 690.579 265.065 688.758C267.118 688.633 269 687.173 267.424 685.603C264.088 686.612 260.862 687.976 257.686 689.342C256.829 689.522 254.79 691.219 254.63 689.705C255.234 688.5 259.891 687.282 261.41 686.446C260.285 685.736 259.157 685.023 258.036 684.308C260.028 684.26 262.588 682.767 260.636 681.073C255.377 682.241 249.908 683.27 245.273 685.928C241.449 684.981 252.581 681.581 253.609 681.419C251.863 680.233 250.172 678.992 248.583 677.653C250.326 677.621 253.958 675.872 251.635 674.31C248.71 673.559 244.649 675.966 241.746 676.738C241.744 676.736 241.744 676.738 241.744 676.738C239.557 677.547 237.391 678.42 235.244 679.323C234.377 679.688 234.009 678.494 234.864 678.133C238.199 676.731 241.576 675.405 245.026 674.261C244.085 673.238 243.2 672.173 242.312 671.104C242.547 669.429 240.814 667.959 240.172 666.444C240.308 665.668 239.918 664.451 238.996 664.29C238.264 663.581 237.158 663.535 236.137 663.696C234.517 660.587 233.118 655.746 232.604 651.889C236.897 651.317 241.877 651.3 245.588 648.935C246.692 648.866 247.792 648.067 247.823 646.739C247.933 641.949 247.458 637.23 247.031 632.464C246.605 627.703 246.205 622.94 245.83 618.175C239.496 541.74 240.638 464.905 246.661 388.491C247.304 379.532 247.627 370.37 246.136 361.474C247.987 360.903 254.904 359.714 254.371 357.213C260.373 341.957 251.496 302.882 244.969 287.527C249.826 287.243 255.657 286.204 258.848 282.206C261.92 281.125 262.997 277.53 264.529 274.939C267.823 268.036 269.958 260.268 269.124 252.582C272.525 251.682 268.308 242.356 267.932 239.845C262.292 221.276 255.83 202.807 247.361 185.321C244.337 178.928 239.039 173.876 232.553 171.053C224.756 167.661 216.921 164.15 208.768 161.668C208.818 160.281 207.365 159.739 206.374 160.24C206.311 160.219 206.247 160.199 206.183 160.183C205.18 159.946 203.663 160.336 202.857 161.172C200.214 157.308 199.53 152.419 198.555 147.88C194.624 151.984 198.253 165.72 204.375 166.903C200.388 195.607 166.961 188.798 156.789 167.881C154.582 163.84 153.094 159.867 150.892 155.754C157.245 157.053 163.743 153.552 166.046 147.47C166.519 146.485 166.928 145.935 167.799 145.319C168.87 144.56 168.597 142.631 167.084 142.681C161.118 144.017 165.037 153.498 150.524 155.159C149.999 154.349 149.379 153.581 148.726 153.185C148.45 152.882 147.579 152.797 147.109 153.145C136.189 153.8 125.538 156.555 115.065 159.522C106.07 161.729 96.6378 166.526 94.4104 176.294C90.1474 191.828 96.9475 269.027 108.686 278.573C110.621 280.443 112.944 281.73 115.459 282.635C113.052 299.801 109.299 316.859 106.105 333.92C105.866 336.862 100.748 353.19 107.244 350.503C107.42 350.588 107.599 350.67 107.777 350.753C107.393 351.533 107.032 352.323 106.682 353.123C105.561 355.689 104.668 358.285 104.259 361.065C103.833 363.955 103.749 366.877 103.62 369.792C103.572 370.876 103.532 371.941 103.519 373C102.264 383.23 102.29 393.674 102.188 403.953C96.5131 442.814 88.3653 481.381 83.7338 520.446C78.1008 562.181 73.6322 604.087 71.0338 646.123C70.945 648.052 73.1843 648.433 74.2732 647.362C74.4292 647.407 74.5857 647.449 74.7424 647.492C74.745 649.178 74.5999 650.869 74.404 652.544C74.0316 654.984 71.2307 661.128 71.936 663.343C69.3863 662.99 65.2816 663.508 64.5416 665.592C61.6228 669.3 61.8095 674.356 58.3445 677.719C61.6796 678.447 64.9923 679.423 68.2269 680.447C68.8954 680.806 68.4908 681.782 67.6453 681.53C65.8494 680.994 64.0488 680.442 62.2381 679.942V679.94C60.4874 679.455 58.729 679.02 56.9478 678.688C56.8863 678.738 56.9075 678.846 56.9849 678.889C55.7103 679.875 54.2633 680.733 52.812 681.555C53.7477 681.76 66.1798 685.081 62.4602 686.122C58.8537 684.63 55.0949 683.204 51.1958 682.464C49.5087 683.417 47.8582 684.411 46.1922 685.389C46.9963 685.559 60.3983 688.463 55.7535 689.303C52.151 687.995 48.417 687.118 44.6542 686.299C40.0407 689.035 35.4199 691.763 30.8667 694.576C28.9626 695.745 26.8924 696.873 25.6695 698.632C24.0451 700.972 24.0259 703.893 25.1423 706.569C21.8832 720.57 27.6345 721.11 41.0398 724.051C60.0423 728.903 76.5224 717.264 93.036 710.94C96.4853 709.329 100.298 708.116 103.389 705.993C106.309 703.919 108.233 699.562 105.559 696.573C107.407 693.127 104.939 684.676 104.35 680.638C103.863 678.09 103.536 673.98 99.7422 673.849C100.757 673.191 100.724 671.955 100.387 670.961C99.9427 666.069 101.467 657.381 101.833 651.856C104.732 652.064 109.032 652.912 110.537 649.706C111.118 648.78 110.368 647.786 109.418 647.66C109.418 647.658 109.419 647.657 109.419 647.656C109.622 647.671 109.565 647.648 109.429 647.616C124.801 584.301 134.716 519.433 156.899 457.95C161.977 446.074 164.239 430.759 175.586 423.092C175.741 424.05 175.904 425.155 176.507 425.844C176.54 425.968 176.574 426.092 176.605 426.216C177.002 427.76 177.448 429.288 177.842 430.833C186.72 499.005 196.969 567.034 201.895 635.664C202.641 638.842 201.427 650.155 205.886 649.647C206.438 649.957 207.158 650.106 207.756 650.254C206.835 654.332 207.092 660.493 207.12 664.211C207.057 667.928 206.441 671.776 206.857 675.455C207.334 677.875 211.868 676.418 211.127 673.986C211.023 667.013 210.6 658.412 209.4 650.671C216.348 652.023 223.469 652.351 230.544 652.027C230.165 656.114 231.378 661.227 232.79 664.579C228.554 665.998 224.451 667.909 221.177 670.791C218.077 673.602 215.227 680.047 209.761 677.917C208.246 677.245 206.586 676.078 206.063 674.575C205.557 674.199 205.822 675.104 205.921 675.32L205.714 675.391C204.457 674.591 202.148 682.891 201.955 683.926C200.989 688.37 199.871 693.432 202.157 697.587C197.245 699.622 197.774 706.241 201.416 709.013C215.874 718.356 239.983 725.984 257.928 727.263C261.104 727.483 264.444 726.555 267.466 725.557C271.017 724.61 274.579 723.598 278.089 722.485C281.181 721.777 283.508 719.132 283.124 716.242V716.242Z" fill="black"/>
<path fill-rule="evenodd" clip-rule="evenodd" d="M141.054 66.9317C142.283 65.6128 143.855 64.6301 145.574 64.3161C144.003 65.1008 142.468 65.9188 141.054 66.9317ZM138.647 78.3044C138.43 77.2993 138.284 76.2844 138.238 75.2698C138.512 75.6874 138.951 75.9663 139.444 76.1104C139.126 76.8231 138.855 77.5574 138.647 78.3044ZM220.887 94.064C219.468 88.1584 212.85 76.7992 211.285 74.6129C209.587 69.1994 218.851 64.8579 213.813 60.6247C211.531 58.7146 208.516 58.0387 205.688 57.3613C186.106 52.6581 165.067 55.0301 146.905 63.6788C144.142 63.0974 141.264 64.2336 139.255 66.2292C129.817 75.7163 142.679 92.8336 145.492 103.529C150.317 115.455 140.377 117.461 141.443 127.551C142.271 132.764 147.551 134.141 152.006 134.929C152.72 135.096 153.675 135.121 153.905 135.876C154.627 140.283 157.101 144.482 160.424 147.331C160.133 148.192 160.355 149.237 161.379 149.993C170.662 156.892 182.366 160.344 193.943 159.724C207.74 158.984 214.875 151.076 216.597 149.039C226.117 136.182 224.979 119.218 223.037 103.896C221.685 93.2219 223.4 104.526 220.887 94.064Z" fill="#694D3D"/>
<path fill-rule="evenodd" clip-rule="evenodd" d="M178.344 44.9232C178.778 43.5675 180.006 42.7522 181.411 42.9205C182.655 43.0674 183.987 44.3023 183.835 45.6651C183.807 45.9282 183.769 46.1746 183.724 46.4069L183.73 46.409V46.409L183.736 46.4093L183.705 46.4994C183.613 46.9331 183.485 47.3218 183.295 47.6891C183.053 48.3931 182.821 49.0993 182.591 49.808C182.923 49.7938 183.262 49.8128 183.606 49.8767C183.961 48.9666 184.319 48.0589 184.674 47.1464C185.056 46.1723 185.324 44.9209 186.077 44.1672C187.042 43.2049 188.715 43.0058 189.89 43.6932C191.132 44.4184 191.575 45.7077 191.305 47.0895C191.168 47.7943 190.697 48.2848 190.114 48.593L190.052 48.6253L189.604 49.6871C189.741 49.6279 189.883 49.5734 190.037 49.5283C190.279 49.4572 190.516 49.4122 190.748 49.3932C191.388 48.2343 192.092 47.1085 192.82 46.004C193.656 44.7336 195.291 44.1932 196.664 44.9967C197.891 45.7148 198.55 47.6014 197.671 48.841C197.002 49.7819 196.37 50.7418 195.746 51.7112C195.853 51.7302 195.96 51.7539 196.062 51.7847C196.109 51.7207 196.159 51.6567 196.211 51.5927C196.891 50.7489 197.683 50.1161 198.495 49.4146C199.256 48.7557 199.607 47.72 200.607 47.2199C201.865 46.5918 203.382 46.8928 204.131 48.1442C205.738 50.8248 203.041 52.7825 201.316 54.406C202.816 53.4698 204.378 52.6142 205.98 51.8747C206.88 51.46 207.795 51.0594 208.724 50.7134C210.101 50.2014 211.215 50.3652 212.345 51.3178C212.85 51.7444 213.101 52.6761 212.869 53.2968C212.419 54.4866 211.708 55.2095 210.461 55.5531C209.584 55.7949 208.686 55.9584 207.809 56.212C206.34 56.6339 204.913 57.1482 203.529 57.7905C203.629 57.8521 203.723 57.9185 203.811 57.9943C204.844 57.6602 205.897 57.371 206.954 57.1245C208.707 56.7134 210.491 56.4357 212.283 56.262L212.878 56.2066C215.027 56.0004 217.61 55.6198 218.929 57.6767C219.362 58.3546 219.41 59.4733 218.929 60.144C218.009 61.4334 217.094 61.6893 215.573 61.713C217.071 61.8718 218.566 62.0685 220.054 62.2984C221.08 62.4549 222.106 62.6322 223.127 62.8289L223.638 62.9289C224.882 63.1777 226.271 63.3223 227.339 64.0428C229.671 65.6166 228.576 68.6811 225.993 69.0082C224.744 69.1646 223.358 68.6361 222.133 68.3896C220.943 68.1502 219.749 67.9393 218.549 67.7544C217.929 67.6572 217.308 67.5719 216.684 67.4937C217.952 67.6762 219.211 67.9345 220.436 68.2995L220.776 68.4022C223.145 69.1242 226.342 70.274 227.081 72.8051C227.529 74.3433 226.304 75.6848 224.82 75.7748C223.441 75.8578 222.291 75.0354 221.121 74.4286C220.268 73.9878 219.4 73.6583 218.481 73.3763C217.53 73.0848 216.561 72.843 215.585 72.6463C216.41 73.1009 217.213 73.6006 217.985 74.1596L218.339 74.4216C220.39 75.9494 223.516 78.3148 222.794 81.1787C222.566 82.0817 221.559 82.9444 220.592 82.8519C218.075 82.6173 216.687 79.9367 214.788 78.5004C214.293 78.126 213.75 77.7562 213.182 77.396C216.059 80.8279 218.348 84.7954 220.09 88.8933C223.918 97.9087 225.092 106.258 225.121 115.951L225.121 116.251C225.126 121.598 225.005 127.042 224.484 132.366C224 137.284 223.114 142.138 220.884 146.591C217.146 154.059 209.864 159.875 201.832 162.089C192.895 164.554 182.906 162.627 175.586 156.939C173.718 155.488 176.195 152.339 178.103 153.678C185.722 159.022 195.576 160.714 204.321 157.098C211.257 154.23 216.843 148.061 219.211 140.957C220.718 136.438 221.156 131.62 221.694 126.911L221.73 126.597C222.299 121.672 222.628 116.714 222.623 111.755C222.616 102.547 221.294 94.9679 217.244 86.6157C215.338 82.6813 212.866 79.0434 209.914 75.8507C209.018 76.0332 208.065 75.7772 207.16 75.68C206.698 75.6303 206.236 75.5829 205.773 75.5402C206.245 75.8455 206.708 76.1629 207.164 76.4877L207.76 76.9181C209.628 78.2559 211.998 79.7797 211.518 82.3661C211.388 83.0653 210.691 83.7076 210.015 83.8664C207.567 84.4494 205.885 82.0698 204.231 80.6572C202.792 79.4295 201.287 78.3298 199.754 77.2277C199.406 76.9788 199.055 76.73 198.702 76.4835C199.033 76.8703 199.356 77.2632 199.671 77.6597L200.136 78.2496C201.545 80.0119 203.575 82.3024 202.32 84.5869C201.965 85.2315 201.207 85.6605 200.472 85.6463C197.946 85.5942 196.941 82.7263 195.756 80.9156C194.737 79.3632 193.63 77.9008 192.485 76.4385C192.17 76.0379 191.853 75.6374 191.53 75.2368C186.224 75.5117 180.937 76.2133 175.742 77.3344C172.173 78.1046 168.663 79.1027 165.18 80.1951L164.89 80.2872C163.005 80.8943 161.062 81.6712 159.703 83.0036C159.509 83.9216 159.658 84.8898 159.843 85.8065L159.988 86.5083C160.584 89.4426 160.99 92.3226 160.686 95.3353C160.371 98.4425 159.435 101.237 158.293 104.124C157.752 105.484 157.193 105.238 157.001 106.698C156.854 107.81 156.945 108.958 157.046 110.079L157.13 111.03C157.34 113.52 157.446 116.235 155.814 118.29C155.56 118.605 155.018 118.479 154.837 118.164C154.766 118.038 154.691 117.918 154.608 117.801C153.821 116.661 152.615 116.012 151.235 115.761C151.06 115.73 151.129 115.495 151.276 115.476C152.442 115.339 153.546 115.63 154.484 116.232C154.039 114.693 150.594 115.442 149.461 115.741L149.422 115.751C148.01 116.131 146.673 116.747 145.495 117.619C143.126 119.373 141.756 122.108 141.824 125.054C141.893 127.95 143.389 130.626 145.958 132.013C147.197 132.681 148.607 133.003 150.01 132.989C151.475 132.975 152.778 132.333 154.245 132.423C155.093 132.475 155.743 133.385 155.252 134.179C154.925 134.71 154.499 135.127 154.006 135.447C155.207 138.217 156.741 140.86 158.508 143.299C159.487 144.652 160.596 145.901 161.817 147.041C162.769 147.933 164.834 148.964 164.718 150.45C164.677 150.985 164.4 151.312 163.912 151.511C162.394 152.132 160.548 149.995 159.533 148.965L159.452 148.883C158.186 147.622 157.032 146.228 156.027 144.749C154.245 142.123 153.138 139.163 152.681 136.054C150.247 136.786 147.024 136.099 145.038 135.2C138.796 132.38 136.755 123.973 140.549 118.375C141.284 117.292 142.204 116.365 143.251 115.616C143.021 115.491 142.806 115.329 142.614 115.126C141.552 113.998 140.801 112.525 140.056 111.169L139.966 111.006C139.305 109.812 138.681 108.599 138.096 107.367L137.879 106.904C136.573 104.095 135.428 102.867 134.497 99.9143C133.601 97.0654 132.895 94.1621 132.437 91.2089L132.316 90.4272C132.051 88.7137 131.801 86.8813 131.994 85.1415C130.665 85.5752 129.328 85.843 128.013 85.1912C127.145 84.7622 126.667 83.5108 126.963 82.6126C127.179 81.9513 127.539 81.4323 127.996 81.0246C127.724 80.8871 127.468 80.7117 127.243 80.5174L127.046 80.347V80.347C126.25 79.6547 126.193 78.3393 126.676 77.4718C126.724 77.3889 126.771 77.3035 126.816 77.2206C127.276 76.3982 128.226 75.8602 129.165 75.8744C129.316 75.8767 129.468 75.8767 129.622 75.8744C129.184 75.7772 128.755 75.6279 128.347 75.3767C126.508 74.2461 126.74 71.1816 128.965 70.6412C129.899 70.416 130.93 70.5085 131.959 70.7502C131.921 70.7289 131.883 70.7076 131.845 70.6839C131.068 70.2075 130.416 69.276 130.489 68.3209C130.57 67.2638 130.911 66.5101 131.845 65.9555C132.655 65.4767 133.802 65.4317 134.608 65.9555C135.307 66.4129 135.992 66.9178 136.651 67.4605C135.99 66.6476 135.416 65.7635 135.184 64.825C134.897 63.6565 135.376 62.3838 136.428 61.7675C137.267 61.2769 138.154 61.3314 138.945 61.7107C138.902 61.0968 139.052 60.4711 139.459 59.9165C140.294 58.7791 141.81 58.1247 143.13 58.9542C143.303 59.0633 143.536 59.2505 143.761 59.4804C143.322 58.0844 143.718 56.6197 145.213 55.9892C146.126 55.6029 147.361 55.7973 148.152 56.4633C147.65 53.7447 151.662 51.7468 153.221 54.5553C153.575 55.1916 153.925 55.8615 154.238 56.5469L154.354 56.8045L154.366 56.7998L154.286 56.6114V56.6114L154.205 56.423C153.771 55.4157 153.219 54.3681 153.067 53.2755C152.844 51.6591 153.565 50.1256 155.323 49.8886C156.231 49.7653 157.241 50.1777 157.85 50.8985C157.52 48.3907 160.321 46.5681 162.338 48.4405C163.293 49.3269 163.803 50.6233 164.409 51.761C164.753 52.4033 165.104 53.0432 165.447 53.6879C165.535 53.5836 165.63 53.4793 165.729 53.3774C165.22 51.851 164.824 50.2868 164.49 48.713C164.172 47.2293 164.914 45.6888 166.445 45.2695C167.836 44.8853 169.578 45.7435 169.889 47.2248C170.107 48.2674 170.365 49.2987 170.649 50.3247C170.844 50.2773 171.036 50.2441 171.225 50.2204C171.241 50.0276 171.259 49.8338 171.279 49.641L171.354 48.9555C171.519 47.3889 171.686 45.6007 172.505 44.2691C173.901 41.9938 177.479 42.9371 177.517 45.6272C177.539 47.0184 176.972 48.3978 176.776 49.7748C176.69 50.3745 176.64 50.9812 176.612 51.588C176.994 49.5734 177.517 47.5849 178.124 45.6272C178.195 45.3925 178.271 45.1579 178.344 44.9232ZM147.47 122.61C150.61 122.125 153.48 123.876 155.34 126.329C155.679 126.777 155.456 127.41 155.15 127.787C154.93 128.064 154.634 128.097 154.3 128.14C153.916 128.19 153.43 127.879 153.262 127.545C152.065 125.156 149.929 123.646 147.47 122.717C147.424 122.701 147.41 122.62 147.47 122.61ZM151.822 79.8054L151.918 79.7033C152.553 79.0441 151.549 78.0373 150.912 78.6979C150.242 79.3933 149.796 80.238 149.368 81.094C148.959 81.9103 150.185 82.6313 150.595 81.8119L150.782 81.4395C151.075 80.8605 151.388 80.2884 151.822 79.8054V79.8054ZM143.004 78.4526C143.905 78.3009 143.523 76.9303 142.626 77.0815C141.464 77.2772 140.307 77.4998 139.145 77.6958C138.245 77.8475 138.627 79.2181 139.523 79.0671C140.685 78.8711 141.842 78.6486 143.004 78.4526ZM196.651 69.0952C195.781 68.8048 195.407 70.1778 196.273 70.4665C197.468 70.8654 198.654 71.2742 199.788 71.8281C200.608 72.2282 201.329 71.0022 200.506 70.6002C199.261 69.9923 197.963 69.5332 196.651 69.0952ZM142.799 67.2522C141.95 66.9123 141.581 68.2872 142.421 68.6235L145.493 69.8519V69.8519C146.342 70.1918 146.711 68.8172 145.871 68.4808L142.799 67.2522V67.2522ZM207.375 63.9133L207.263 63.8426C206.493 63.3434 205.779 64.574 206.545 65.0705C206.995 65.3618 207.542 65.5594 207.953 65.9065L208.039 65.9832C208.704 66.6113 209.712 65.6078 209.045 64.9776C208.557 64.517 207.939 64.2605 207.375 63.9133V63.9133Z" fill="black"/>
<path fill-rule="evenodd" clip-rule="evenodd" d="M213.086 149.251C212.257 148.98 211.443 148.665 210.625 148.362C206.443 146.265 201.392 145.885 197.006 147.65C194.853 148.517 192.846 150.074 190.686 151.094C190.173 151.285 189.656 151.459 189.133 151.604C188.812 151.493 188.492 151.374 188.173 151.256C185.882 150.394 183.727 149.331 181.635 148.162C181.412 147.848 181.18 147.543 180.931 147.251C182.445 147.036 183.928 146.68 185.269 146.312C189.387 145.186 193.268 143.352 197.371 142.176C201.193 141.079 205.339 140.479 209.177 141.842C210.999 142.489 212.602 143.622 214.373 144.385C215.29 144.778 216.39 145.165 217.461 145.222C216.77 146.874 215.896 148.416 214.701 149.701C214.155 149.585 213.613 149.421 213.086 149.251ZM221.997 136.312C221.63 136.616 220.117 137.597 219.626 138.182C219.499 138.134 219.373 138.085 219.248 138.034C219.032 137.77 218.714 137.653 218.39 137.661C216.127 136.61 214.112 135.126 212.314 133.264C211.037 131.944 209.728 130.563 208.02 129.797C206.009 128.892 204.031 129.309 201.917 129.446C199.668 129.596 197.447 128.958 195.201 129.264C193.557 129.489 192.018 130.183 190.688 131.162C187.974 133.16 186.102 135.966 183.808 138.386C181.205 141.131 178.004 142.885 174.444 143.781C174.401 143.752 174.356 143.724 174.311 143.698C171.687 141.328 169.317 138.652 167.22 135.8C165.173 133.016 159.774 120.48 158.471 119.38C157.929 118.923 157.335 118.726 156.768 118.743C155.739 118.767 154.79 119.48 154.364 120.603C153.642 122.514 154.003 124.983 154.06 126.981C154.132 129.427 154.293 131.871 154.55 134.305C154.804 136.711 155.141 139.109 155.561 141.491C155.773 142.695 156.008 143.897 156.267 145.094C156.347 145.47 156.45 145.807 156.573 146.12C156.699 146.71 156.834 147.298 156.979 147.881C157.924 151.699 159.416 155.522 162.263 158.34C165.227 161.277 169.255 163.227 172.995 164.972C176.558 166.633 180.291 168.11 184.122 169.266C187.449 170.771 191.011 171.961 194.588 172.587C198.526 173.276 202.665 173.319 206.467 171.954C208.336 171.283 210.103 170.347 211.706 169.181C213.979 168.003 216.024 166.384 217.698 164.242C220.697 160.402 222.128 155.742 222.755 150.937C222.915 149.707 223.518 144.994 223.565 144.26C223.718 141.89 223.871 139.52 224.024 137.15C224.096 136.032 222.721 135.712 221.997 136.312Z" fill="black"/>
<path fill-rule="evenodd" clip-rule="evenodd" d="M197.519 143.848C195.923 143.198 194.498 142.114 193.457 140.729C193.095 140.247 193.001 139.739 193.077 139.274C193.162 138.751 193.472 138.277 193.895 137.959C194.319 137.64 194.85 137.483 195.362 137.563C195.808 137.633 196.252 137.876 196.603 138.381L196.676 138.482C197.295 139.318 198.102 140.004 199.021 140.446C199.907 140.872 200.898 141.071 201.924 140.955C203.877 140.735 205.223 139.681 206.654 138.25C206.831 138.069 207.008 137.882 207.187 137.693C207.299 137.521 207.456 137.411 207.629 137.353C207.822 137.289 208.04 137.292 208.239 137.362C208.432 137.429 208.604 137.556 208.719 137.725C208.829 137.886 208.891 138.085 208.871 138.313C208.74 139.796 207.963 141.12 206.859 142.16C205.633 143.314 204.008 144.113 202.478 144.393C200.792 144.702 199.075 144.481 197.519 143.848V143.848ZM203.273 120.962C205.066 122.05 207.799 124.587 205.87 127.284C203.599 129.662 200.329 126.935 198.718 125.702C197.224 124.746 195.545 127.204 196.932 128.32C208.574 136.923 213.299 121.247 204.18 119.683C203.176 119.511 202.803 120.626 203.273 120.962ZM182.409 110.955C182.608 108.501 186.353 107.943 186.726 110.372C187.06 112.548 186.667 114.547 185.685 116.506C184.747 118.377 182.388 117.504 182.21 115.8C181.971 113.516 182.286 112.482 182.409 110.955ZM210.923 109.869C211.446 109.186 212.2 108.72 213.103 108.983C215.926 109.807 215.094 113.806 214.102 115.752C213.564 116.809 211.823 117.077 211.036 116.147C209.753 114.629 209.139 111.598 210.77 110.103C210.814 110.025 210.863 109.947 210.923 109.869ZM185.645 100.215L186.091 100.137C187.47 99.8991 189.185 99.6704 190.161 100.777C190.678 101.364 190.857 102.455 190.161 103.016C188.937 104.005 187.585 103.622 186.118 103.705C184.91 103.774 183.749 103.974 182.585 104.306C180.031 105.034 177.951 106.364 175.77 107.824C175.484 108.016 175.192 107.65 175.328 107.383C176.587 104.922 179.027 102.901 181.471 101.669C182.775 101.011 184.202 100.465 185.645 100.215ZM208.35 99.1127L208.692 99.1824C212.405 99.9571 217.23 101.505 218.989 105.145C219.056 105.66 218.985 105.77 218.927 105.842L218.908 105.866C218.861 105.928 218.823 106.012 218.599 106.083C218.537 106.068 218.475 106.052 218.411 106.036C217.605 105.825 216.967 105.534 216.35 105.233L215.681 104.904C214.904 104.524 214.12 104.158 213.29 103.887C211.518 103.31 209.695 102.904 207.844 102.687C207.442 102.64 207.056 102.505 206.751 102.273C206.462 102.053 206.241 101.749 206.14 101.344C206.01 100.821 206.047 100.424 206.329 99.9521C206.54 99.5974 206.843 99.3515 207.191 99.2104C207.545 99.0664 207.949 99.0325 208.35 99.1127Z" fill="black"/>
<path fill-rule="evenodd" clip-rule="evenodd" d="M224.528 122.406C221.644 125.379 216.831 126.232 212.995 124.638C203.145 120.53 207.966 107.72 215.563 104.28C216.512 104.044 217.779 103.484 218.935 103.357C219.039 103.306 219.267 103.454 219.543 103.314C227.919 104.247 229.827 117.224 224.528 122.406M192.757 123.167C189.523 127.447 183.511 128.768 178.599 126.778C168.894 122.964 172.336 111.604 178.976 107.151C193.001 101.892 198.793 115.274 192.757 123.167M171.72 113.682C171.711 113.678 171.702 113.676 171.693 113.671C171.744 113.649 171.795 113.626 171.846 113.603C171.83 113.647 171.812 113.69 171.796 113.733C171.77 113.716 171.748 113.696 171.72 113.682M231.204 109.055C230.412 109.057 229.269 109.186 228.613 109.735C226.997 104.295 221.031 99.2598 215.842 102.931C211.756 104.242 208.724 107.151 207.001 111.017C203.894 109.173 199.008 109.961 196.314 112.4C194.549 106.581 190.206 104.543 185.037 104.242C179.396 103.32 173.772 108.788 172.018 113.175C170.559 113.009 168.379 112.546 167.006 113.444C158.099 111.113 142.526 109.828 140.715 111.123C139.424 111.617 138.716 114.657 140.519 114.821C142.089 114.599 140.335 112.594 141.919 112.375C150.355 111.853 158.545 113.549 166.892 114.26C167.637 115.261 170.045 115.595 171.329 115.193C169.306 122.634 173.674 127.697 180.218 129.213C190.351 131.536 199.167 122.49 196.517 113.081C199.586 111.557 203.117 111.622 206.461 112.425C200.873 132.948 233.993 132.027 228.82 110.438C232.263 112.147 233.01 109.4 231.204 109.055" fill="black"/>
</svg>
