<svg width="449" height="585" viewBox="0 0 449 585" fill="none" xmlns="http://www.w3.org/2000/svg">
<path fill-rule="evenodd" clip-rule="evenodd" d="M438.718 323.781C433.238 324.316 427.757 324.85 422.277 325.385C396.029 327.379 369.792 331.543 343.746 334.042C343.097 332.993 341.828 333.166 341.057 333.895C338.458 333.669 335.545 331.694 333.191 333.748C333.114 333.737 333.038 333.725 332.961 333.718C328.769 325.718 325.871 317.186 323.059 308.642C321.264 303.389 318.849 298.304 314.386 294.777C306.77 289.521 289.319 278.862 280.376 279.31C280.228 277.717 279.481 276.077 278.256 275.016C280.957 270.438 270.156 267.45 269.394 267.981C269.883 252.683 262.645 239.398 246.687 236.352C232.39 233.389 212.055 232.892 204.366 247.747C203.521 247.653 194.881 247.608 194.045 247.701C192.745 246.064 178.472 261.574 184.322 266.973C132.02 289.977 102.281 287.232 87.8047 351.902C85.8476 357.977 85.7051 364.625 83.6386 370.565C76.2863 387.634 70.3229 405.811 68.8388 424.384C65.2543 425.297 64.842 431.581 68.994 432.49C70.5799 432.838 71.9061 433.313 73.0626 434.213C72.1586 449.433 75.861 484.203 78.1938 484.096C82.9505 499.147 104.168 503.395 119.189 498.106C116.599 502.95 119.189 505.995 119.189 508.583C173.239 510.616 232.336 509.445 286.371 512.234C293.283 512.136 300.553 513.922 307.371 512.894C311.528 511.903 311.535 505.403 307.318 504.599L325.746 500.62C325.334 500.465 333.341 495.17 339.394 485.273C345.027 474.203 341.193 460.84 343.746 448.798C363.682 447.177 383.948 446.484 403.666 443.127C406.355 451.125 417.993 441.56 421.692 437.712C421.688 437.706 421.683 437.7 421.679 437.694C423.469 437.207 424.905 435.539 424.953 433.564C426.208 431.78 426.472 429.266 425.268 427.542C430.786 395.881 439.199 363.555 442.24 331.596C443.315 331.36 444.327 330.891 445.186 330.169L445.116 330.1C446.57 328.488 446.853 325.706 444.429 324.336C442.473 323.23 440.84 323.573 438.718 323.781Z" fill="#694D3D"/>
<path fill-rule="evenodd" clip-rule="evenodd" d="M230.282 442.28L234.504 444.951L269.046 456.018L290.155 458.689L307.426 456.018V485.401L310.88 512.877C309.345 515.675 294.761 515.675 267.127 512.877C249.511 511.093 185.13 510.227 170.471 509.846L169.641 509.824C152.416 509.33 135.401 509.33 118.595 509.824V499.521L166.57 475.861L209.556 451.82L230.282 442.28ZM205.806 245.346L208.979 247.701L202.052 259.016L235.793 286.152V307.827L246.476 317.872L252.581 307.827L261.185 296.451L267.299 278.01L265.218 265.861L269.404 265.469C269.425 266.299 269.421 267.137 269.394 267.981C270.156 267.45 280.957 270.438 278.256 275.016C279.481 276.077 280.228 277.717 280.376 279.31C289.319 278.861 306.77 289.521 314.386 294.777C318.849 298.304 321.264 303.389 323.059 308.642L323.481 309.923L323.918 311.239L324.357 312.553C326.786 319.779 329.409 326.94 332.96 333.718C333.038 333.725 333.114 333.737 333.191 333.748C335.545 331.694 338.458 333.669 341.057 333.895C341.81 333.183 343.038 333.001 343.699 333.971L343.745 334.042L311.363 340.385L290.001 414.891L271.397 399.876L261.411 401.353L235.04 410.809L204.37 418.731L134.352 437.924H125.436L73.5516 425.466L68.8757 423.931C70.4198 405.515 76.3459 387.496 83.6384 370.565C85.705 364.625 85.8475 357.977 87.8046 351.902C102.281 287.232 132.02 289.977 184.322 266.973C178.472 261.574 192.745 246.064 194.045 247.701L194.127 247.694L194.304 247.685L194.532 247.677C196.572 247.618 203.607 247.662 204.366 247.747C204.806 246.897 205.287 246.098 205.806 245.346Z" fill="#FFDBB4"/>
<path fill-rule="evenodd" clip-rule="evenodd" d="M443.894 326.043L442.929 331.387C442.7 331.462 442.467 331.525 442.231 331.577C441.927 334.763 441.571 337.953 441.169 341.145L435.189 374.283C434.158 380.146 433.179 386.021 432.207 391.898L430.919 398.211L430.121 402.135C428.399 410.632 426.726 419.101 425.258 427.523C425.48 427.841 425.652 428.185 425.777 428.546L425.664 429.021L425.585 429.337L425.505 429.65C424.347 434.077 422.331 438.369 417.582 439.672C413.999 440.654 410.068 440.743 406.369 441.131L405.959 441.175L341.227 448.413C333.406 449.287 325.588 450.188 317.771 451.098L310.994 451.889C301.548 452.976 292.049 453.832 282.742 455.801C282.4 455.873 282.117 456.009 281.886 456.188C283.76 449.134 285.554 442.09 287.18 434.966C289.01 426.947 290.747 418.913 292.704 410.923C296.647 394.827 301.067 378.837 305.906 362.984C306.922 359.656 307.961 356.336 309.022 353.023L309.767 350.707L310.341 348.862C311.228 346.048 312.326 343.156 314.928 341.604C317.973 339.787 322.125 339.486 325.579 338.858L327.917 338.421C331.416 337.772 334.919 337.148 338.427 336.548C355.221 333.676 372.11 331.372 389.061 329.642C406.7 327.841 424.4 326.67 442.122 326.098L443.894 326.043ZM283.227 436.534L283.392 436.548L280.975 455.766C280.588 455.497 280.097 455.332 279.498 455.334C271.567 455.357 263.964 452.836 256.61 450.066L255.491 449.641L252.369 448.448C249.195 447.239 246.004 446.057 242.754 445.076L241.44 444.682L240.773 444.486C238.312 443.772 235.723 443.123 233.164 442.961L232.815 442.942L233.56 442.553C233.669 442.496 233.765 442.433 233.85 442.364C235.259 442.468 236.67 442.44 238.156 442.173C240.951 441.673 243.669 440.706 246.164 439.36L247.279 438.76L247.735 438.519L248.037 438.364L248.336 438.213C250.48 437.151 252.529 436.486 255.235 437.051C258.307 437.694 260.999 439.34 263.769 440.731L264.26 440.975L264.59 441.133L264.927 441.291L265.268 441.446C269.013 443.121 274.973 444.929 276.409 439.867C276.986 437.833 276.534 435.929 275.533 434.259C277.398 434.098 280.731 436.285 283.227 436.534ZM376.444 373.215L376.49 373.446C377.019 376.28 375.691 378.992 373.682 380.968C372.033 382.589 369.116 383.49 368.29 385.822C367.819 387.149 368.319 388.407 369.286 389.285L369.063 389.394L368.846 389.505L368.633 389.616L368.426 389.729L368.224 389.842C364.941 391.717 362.268 394.767 365.229 398.451C368.588 402.63 375.606 402.765 380.551 402.438L380.884 402.415C385.679 402.057 391.359 400.456 393.959 396.054C395.152 394.034 395.021 391.592 393.358 389.864C392.356 388.821 390.567 387.751 388.926 387.624C388.998 386.705 388.888 385.817 388.563 385.068C387.86 383.449 385.989 382.359 384.184 382.32C384.33 378.881 381.56 375.488 379.521 372.739L379.313 372.457L379.111 372.18C378.175 370.886 376.173 371.611 376.444 373.215ZM379.181 376.875L381.039 383.795L381.007 383.852C380.352 385.088 382.068 386.49 383.086 385.452L383.188 385.342C384.396 384.102 386.25 385.769 386.273 387.089C386.306 388.947 385.089 390.384 383.64 391.333L383.538 391.398L383.271 391.563C382.081 392.345 382.982 393.979 384.29 393.78C385.908 393.534 387.234 392.258 388.051 390.665C388.925 390.914 389.919 390.884 390.839 391.395C393.157 392.684 391.824 394.94 390.314 396.303L390.253 396.357L390.13 396.464C387.36 398.812 383.589 399.628 380.035 399.803L379.83 399.812C376.24 399.965 371.562 400.016 368.485 397.916C366.569 396.61 366.015 394.756 367.636 393.001C368.552 392.01 369.477 391.009 370.43 390.042C371.856 390.719 373.129 390.444 374.587 389.804C374.774 389.722 374.671 389.437 374.488 389.437C373.683 389.437 370.731 387.952 370.588 387.003C370.455 386.125 372.088 385.385 372.882 384.96L372.997 384.898L373.097 384.84C373.928 384.34 374.709 383.757 375.424 383.103C377.238 381.443 378.555 379.361 379.13 377.083L379.181 376.875Z" fill="white"/>
<path fill-rule="evenodd" clip-rule="evenodd" d="M205.362 244.297C206.991 240.228 212.495 241.81 211.882 246.085C211.514 248.645 210.104 251.35 208.837 253.594C207.805 255.421 206.629 257.203 205.033 258.573C207.873 261.207 210.821 263.746 213.844 266.156C217.143 268.786 220.611 271.209 224.196 273.437C227.34 275.391 230.626 277.122 233.589 279.351C236.344 281.424 238.854 283.917 240.132 287.17C241.492 290.636 240.901 294.214 239.899 297.677L239.784 298.068C238.76 301.499 236.988 305.634 239.445 308.867C240.696 310.512 242.515 311.678 244.085 312.993C245.48 314.162 246.79 315.434 247.991 316.799C250.611 319.777 252.741 323.127 254.086 326.86L254.206 327.199C255.358 330.503 256.201 334.551 254.644 337.796C254.197 338.726 252.756 338.423 252.506 337.518C251.94 335.466 251.97 333.318 251.495 331.237C251.002 329.074 250.18 327.02 249.108 325.077C247.032 321.318 244.221 318.107 240.9 315.392L239.906 314.588C237.315 312.474 234.935 310.232 234.409 306.733C233.846 302.99 235.355 299.424 236.325 295.881C237.001 293.412 237.221 291.046 236.491 288.814C235.598 290.263 234.381 291.637 233.418 292.863C231.5 295.306 229.564 297.734 227.633 300.166C225.654 302.66 223.723 305.194 221.884 307.793C221.062 308.956 220.248 310.125 219.437 311.296C218.827 312.176 217.977 313.055 217.312 313.953C217.473 314.433 217.461 314.986 217.168 315.379C213.643 320.115 208.628 310.234 207.32 307.737C204.656 302.653 202.674 297.252 200.002 292.169C197.232 286.9 194.079 281.771 190.565 276.96C188.439 274.051 186.056 271.317 184.111 268.315C179.53 272.446 173.501 275.215 167.964 277.726C161.879 280.484 155.558 282.738 149.32 285.131L147.478 285.842C136.729 290.013 125.719 294.595 116.785 302.003C106.286 310.709 100.076 322.842 95.4521 335.407C90.1295 349.872 85.7262 364.727 81.6214 379.572C79.5208 387.168 77.5277 394.798 75.654 402.453C74.0029 409.197 72.6343 416.007 70.7229 422.682C74.5993 422.546 79.0204 424.038 82.3299 424.468C97.413 426.431 112.293 429.561 126.533 434.978C128.292 435.648 128.801 437.394 128.418 438.81C129.432 438.525 130.446 438.237 131.46 437.954C130.349 436.26 130.88 433.233 130.967 431.357L130.972 431.228C131.062 428.727 131.335 426.224 131.512 423.728C131.849 418.97 132.287 414.246 132.871 409.515L133.019 408.332C133.68 403.185 134.169 398.008 134.89 392.87L134.975 392.282C134.63 390.967 134.227 389.668 133.804 388.375C132.678 384.932 131.089 381.69 129.696 378.354C129.532 377.961 130.095 377.736 130.357 377.971C132.716 380.081 134.59 382.758 136.095 385.557C136.121 385.425 136.144 385.293 136.172 385.161L136.343 384.32C136.767 382.27 137.282 380.113 138.547 378.451C138.682 378.274 138.948 378.237 139.076 378.451C140.286 380.487 140.422 383.067 140.608 385.384C140.818 388.006 140.845 390.661 140.808 393.289C140.735 398.427 140.371 403.579 140.081 408.708C139.796 413.749 139.237 418.725 138.517 423.716L138.38 424.652C138.028 427.027 137.739 429.432 137.275 431.791L137.143 432.434C136.895 433.604 136.742 435.253 136.248 436.624C148.966 433.096 161.705 429.65 174.467 426.264C183.691 423.816 192.924 421.405 202.154 418.979C202.641 418.106 203.247 417.291 204.004 416.563C206.498 414.162 209.802 413.09 212.833 414.939C213.08 415.089 213.1 415.473 212.833 415.619C212.253 415.934 211.671 416.258 211.099 416.595L216.641 415.103C220.784 413.986 224.976 412.592 229.215 411.814C237.025 407.982 245.424 405.208 253.65 402.467L254.62 402.141C258.832 400.714 263.189 399.115 267.54 398.324C270.726 397.744 274.466 398.443 275.747 401.689C277.369 402.751 278.895 404 280.368 405.229C281.433 406.116 282.453 407.06 283.491 407.979L283.682 408.146C284.531 408.878 285.203 409.368 285.411 410.533C285.519 411.135 285.134 411.948 284.387 411.869C282.103 411.626 280.246 408.993 278.697 407.421C277.501 406.206 276.294 404.95 275.202 403.615C274.565 403.959 273.692 403.898 273.287 403.134C271.185 399.178 265.428 401.919 262.242 402.858L257.679 404.201C255.398 404.873 253.117 405.549 250.84 406.236C244.583 408.126 238.356 410.24 232.041 411.975C232.606 412.593 232.528 413.691 231.455 414.109C226.513 416.037 221.09 417.034 215.955 418.357C212.713 419.193 209.473 420.035 206.234 420.881C205.679 421.775 205.28 422.787 205.111 423.965C204.493 428.296 205.685 433.294 206.847 437.483L207.022 438.108C207.976 441.476 209.38 445.605 212.303 447.732C213.017 448.251 213.925 448.612 214.841 448.693C220.562 445.765 226.283 442.838 232.008 439.915C233.068 439.374 234.048 440.107 234.286 440.979C236.304 440.649 238.318 440.13 240.152 439.511C243.234 438.471 245.641 436.486 248.53 435.113C254.12 432.458 259.829 435.72 264.835 438.199L265.988 438.763C268.233 439.846 272.903 441.926 273.98 438.964C275.022 436.099 271.728 433.037 269.601 431.748C267.066 430.21 264.113 429.388 261.248 428.702C259.612 428.311 257.956 427.991 256.29 427.758C254.4 427.494 252.448 427.533 250.628 426.924C249.724 426.622 249.585 425.194 250.628 424.958C253.429 424.324 256.772 425.016 259.695 425.722L261.223 426.096C264.168 426.815 267.141 427.717 269.824 429.15C271.774 430.192 273.833 431.776 275.178 433.715C276.346 432.636 277.799 432.673 279.313 433.073L280.135 433.3C281.492 433.674 282.592 433.931 283.913 433.672C284.089 432.717 284.268 431.761 284.46 430.806C286.341 421.413 288.405 412.056 290.682 402.749C294.61 386.696 299.155 370.819 304.279 355.104L304.793 353.533C305.975 349.939 306.926 346.023 308.831 342.721C310.633 339.599 313.52 337.8 316.95 336.848C320.843 335.767 324.933 335.202 328.904 334.472C329.789 334.309 330.678 334.154 331.564 333.995C330.815 332.649 330.256 331.123 329.752 329.951L329.664 329.748C328.581 327.295 327.609 324.797 326.67 322.287L325.968 320.399C324.273 315.854 322.523 311.383 320.14 307.132C317.632 302.658 314.304 299.001 310.155 295.973C301.697 289.8 291.502 286.652 283.298 280.055C282.962 279.785 283.393 279.323 283.734 279.494C289.274 282.261 295.254 284.143 301.015 286.396L302.152 286.842C306.706 288.637 311.331 290.591 315.272 293.497C319.667 296.737 323.128 300.762 325.73 305.547C328.293 310.265 329.933 315.545 331.742 320.584L332.226 321.926C332.956 323.94 333.709 325.947 334.573 327.906C335.258 329.461 336.537 331.237 337.119 333.014C338.71 332.739 340.3 332.464 341.893 332.2C376.384 326.474 411.26 323.11 446.214 322.126C447.582 322.087 448.289 323.385 448.088 324.571C444.733 344.293 441.752 364.082 438.482 383.818C437.054 392.432 435.598 401.04 434.107 409.643C433.352 414.002 432.48 418.344 431.765 422.709C431.187 426.234 430.768 429.787 429.777 433.23C428.888 436.318 427.524 439.295 425.284 441.651C422.869 444.19 419.499 445.419 416.106 446C407.493 447.474 398.659 448.076 389.976 449.057L343.748 454.287C344.423 460.392 344.474 466.402 344.164 472.578L343.987 475.95C343.843 478.662 343.67 481.378 343.279 484.062C342.787 487.429 341.238 490.28 338.957 492.794C336.861 495.104 334.316 497.074 331.84 498.963C329.27 500.923 326.615 502.816 323.593 504.028L323.201 504.183C320.55 505.212 315.577 506.805 311.954 506.223C312.427 508.582 313.344 511.119 312.531 513.454C312.154 514.538 310.729 515.079 309.855 514.157C308.125 512.328 307.989 509.914 307.58 507.528C307.153 505.047 306.785 502.556 306.459 500.059C305.827 495.231 305.335 490.359 305.185 485.491C305.031 480.491 305.091 475.484 305.362 470.49C305.501 467.925 305.674 465.362 306.001 462.814C306.141 461.727 306.283 460.639 306.447 459.555C306.506 459.16 306.572 458.766 306.643 458.374L302.494 458.839C296.132 459.545 289.766 460.183 283.359 460.282C282.6 460.293 282.017 459.95 281.635 459.45C281.229 460.108 280.521 460.579 279.507 460.575C270.56 460.542 262.227 457.633 254.089 454.205C249.987 452.476 245.949 450.605 241.841 448.891C238.006 447.291 233.907 446.15 230.165 444.348L220.332 449.476C220.259 449.728 220.167 449.966 220.069 450.166C219.428 451.465 218.166 452.17 216.877 452.701C215.64 453.212 214.358 453.37 213.11 453.241C205.652 457.127 198.193 461.009 190.729 464.882L183.263 468.751C168.388 476.451 153.573 484.278 138.604 491.798L137.502 492.349C132.332 494.927 126.78 497.54 121.043 499.489C120.941 500.933 121.005 502.338 121.127 503.866L121.156 504.199C121.327 506.005 121.694 508.268 120.237 509.554C119.479 510.222 118.125 510.225 117.609 509.217C116.674 507.388 117.514 504.506 117.81 502.52C117.915 501.814 118.044 501.087 118.233 500.383C111.655 502.33 104.879 503.274 98.1852 502.181C91.6682 501.117 86.6208 497.035 82.5517 492.042C78.2574 486.773 75.2057 480.633 73.5684 474.051C71.7051 466.561 71.5834 458.825 71.6272 451.153C71.6736 442.984 71.9776 434.773 72.977 426.658C71.882 426.402 70.6677 426.181 69.5612 426.257C69.0131 427.129 67.9499 427.496 66.9893 427.383C64.9002 429.674 70.199 432.015 71.8924 432.601C72.4804 432.805 72.4174 433.754 71.7392 433.726L71.3121 433.706C68.6955 433.567 65.9923 433.123 64.4539 430.705C63.2211 428.768 63.5915 426.472 65.0611 424.892C66.0317 415.767 68.3522 406.881 70.5118 397.98C72.6312 389.243 74.9881 380.562 77.4863 371.925L78.6062 368.06C82.5396 354.517 86.6509 340.865 92.0766 327.861C94.7858 321.367 97.9069 314.993 102.138 309.331C106.081 304.053 110.737 299.537 116.089 295.68C126.066 288.488 137.773 284.143 149.275 280.003L149.79 279.818C155.751 277.674 161.697 275.504 167.59 273.182C172.802 271.127 177.795 268.523 182.982 266.438C182.813 266.134 182.651 265.826 182.494 265.515L182.398 265.595C182.382 265.608 182.365 265.621 182.347 265.633C181.826 265.992 181.058 265.815 180.628 265.412C179.414 264.273 179.825 263.009 180.635 261.828L180.741 261.678C181.732 260.298 182.616 258.839 183.53 257.408L184.103 256.514C185.638 254.124 187.251 251.719 189.298 249.744C190.246 248.829 191.284 248.145 192.384 247.634C192.29 247.437 193.114 247.033 193.348 247.236C196.832 245.968 200.84 246.234 204.638 246.583M341.511 454.539L336.668 455.087C331.339 455.69 326.008 456.273 320.677 456.85L309.096 458.101C309.067 458.758 308.987 459.399 308.972 459.895C308.896 462.451 308.84 465.007 308.787 467.564C308.68 472.688 308.797 477.817 309.136 482.931C309.465 487.887 309.898 492.843 310.571 497.765L310.709 498.749L310.789 499.267C311.338 499.319 311.878 499.579 312.326 500.112C313.306 501.275 316.853 500.144 318.238 499.654C320.516 498.849 322.661 497.487 324.64 496.122C326.573 494.788 328.313 493.234 329.986 491.596L331.354 490.25C332.716 488.906 334.078 487.473 334.912 485.781C336.043 483.487 336.19 480.67 336.521 478.172C336.93 475.098 337.416 472.025 337.93 468.967M200.903 422.278L200.401 422.409C182.15 427.23 163.928 432.194 145.621 436.803C136.562 439.084 127.46 441.2 118.389 443.437L116.921 443.802C109.765 445.6 102.524 447.764 97.0441 452.925C96.8419 453.115 96.5482 452.823 96.7386 452.621C102.644 446.37 111.043 443.724 119.108 441.43C120.598 441.006 122.091 440.592 123.582 440.171C112.615 436.283 101.474 432.901 90.0762 430.489C87.1412 429.868 84.1721 429.412 81.2395 428.788C79.1943 428.353 77.1969 427.724 75.1732 427.202L73.5815 426.804L73.5603 431.806C73.5339 438.891 73.5465 445.969 73.91 453.053L73.9788 454.365C74.403 462.248 75.065 470.295 77.8785 477.727C80.1649 483.768 83.8091 489.458 88.5747 493.857C90.9862 496.083 93.5788 497.816 96.7835 498.671C99.7591 499.466 102.877 499.559 105.936 499.347C120.608 498.329 133.669 490.404 146.414 483.843C167.261 473.111 188.111 462.385 208.979 451.694C208.415 451.311 207.883 450.869 207.4 450.372C204.602 447.499 203.126 443.565 202.156 439.756C201.124 435.701 200.507 431.354 200.435 427.168M227.456 455.837C227.64 455.738 227.853 455.862 227.862 456.068C227.926 457.653 227.045 459.216 226.387 460.644L226.318 460.796C225.518 462.564 224.643 464.309 223.737 466.026C221.928 469.457 220.047 472.852 218.084 476.198C214.137 482.93 209.751 489.378 204.567 495.24C203.396 496.564 201.47 494.866 202.221 493.44C205.845 486.568 210.068 480.079 214.416 473.646C216.593 470.425 218.768 467.201 220.966 463.995C221.883 462.657 222.811 461.324 223.765 460.011L224.34 459.226M443.903 326.062C425.589 326.612 407.297 327.8 389.07 329.661C372.119 331.391 355.23 333.695 338.437 336.567C334.929 337.167 331.426 337.791 327.927 338.44L325.828 338.832C322.328 339.492 318.053 339.764 314.937 341.623C311.652 343.582 310.765 347.678 309.672 351.055C308.387 355.027 307.134 359.01 305.916 363.003C301.077 378.856 296.657 394.846 292.713 410.942C290.756 418.932 289.019 426.966 287.189 434.985C285.563 442.109 283.77 449.153 281.895 456.206C282.127 456.028 282.41 455.892 282.752 455.82C292.058 453.851 301.558 452.995 311.003 451.908L311.917 451.802C321.689 450.659 331.46 449.525 341.237 448.432L405.969 441.194C409.786 440.768 413.876 440.71 417.591 439.691C423.908 437.958 425.388 430.937 426.448 425.345L426.48 425.176C429.675 408.282 432.219 391.24 435.199 374.302M283.402 436.567C280.889 436.402 277.449 434.113 275.542 434.278C276.543 435.947 276.995 437.852 276.418 439.886C274.813 445.546 267.552 442.618 264.055 440.889C261.188 439.47 258.419 437.735 255.245 437.07C251.648 436.318 249.212 437.74 246.174 439.379C243.678 440.725 240.961 441.692 238.166 442.192C236.68 442.458 235.268 442.487 233.859 442.383C233.774 442.452 233.679 442.515 233.57 442.572L232.824 442.961C236.195 443.114 239.627 444.149 242.764 445.095C246.014 446.076 249.204 447.258 252.378 448.467L255.5 449.66C263.201 452.592 271.173 455.377 279.507 455.352C280.107 455.351 280.597 455.516 280.984 455.785M269.341 418.832C271.824 418.53 274.116 418.854 276.099 420.461C278.492 422.399 280.099 425.612 283.539 425.824C284.542 425.885 284.775 427.287 283.778 427.58C281.218 428.334 279.145 426.956 277.4 425.168L276.228 423.95C274.504 422.175 272.914 420.803 269.989 420.909C266.856 421.023 263.718 421.743 260.606 422.109C257.08 422.523 253.556 422.876 250.019 423.181C249.855 423.195 249.827 422.938 249.98 422.9L253.942 421.92M266.944 408.74L267.354 408.699C270.959 408.351 274.256 408.338 277.476 410.266L278.094 410.637C280.997 412.392 284.157 414.459 285.972 417.299C286.269 417.764 285.778 418.311 285.281 418.193C281.792 417.36 279.241 414.815 276.307 412.91C273.014 410.772 269.613 411.125 265.858 411.457C262.222 411.778 258.589 412.22 254.989 412.823C251.607 413.388 248.214 414.281 244.797 414.566L244.798 414.559C244.407 414.558 244.185 413.976 244.583 413.778C248.05 412.057 252.066 411.242 255.838 410.455M376.468 373.31C376.12 371.653 378.17 370.884 379.12 372.199L379.322 372.476C381.375 375.273 384.345 378.782 384.193 382.338C385.998 382.378 387.869 383.468 388.572 385.087C388.897 385.836 389.007 386.724 388.936 387.643C390.576 387.769 392.365 388.84 393.368 389.883C395.03 391.611 395.161 394.053 393.969 396.073C391.369 400.475 385.689 402.076 380.894 402.434L380.723 402.446C375.77 402.786 368.634 402.694 365.238 398.47C361.962 394.395 365.583 391.095 369.295 389.304C368.329 388.426 367.828 387.168 368.299 385.841C369.125 383.509 372.043 382.608 373.691 380.987C375.701 379.011 377.028 376.299 376.499 373.465M379.19 376.894C378.644 379.254 377.302 381.412 375.433 383.122C374.719 383.776 373.937 384.359 373.106 384.859L373.007 384.917C372.27 385.328 370.458 386.099 370.597 387.022C370.741 387.971 373.693 389.455 374.497 389.456C374.68 389.456 374.784 389.74 374.597 389.823C373.139 390.463 371.865 390.738 370.439 390.061C369.487 391.028 368.561 392.029 367.645 393.02C366.024 394.775 366.579 396.628 368.494 397.935C371.571 400.035 376.249 399.984 379.84 399.831C383.453 399.677 387.316 398.876 390.139 396.483L390.262 396.376C391.796 395.02 393.198 392.721 390.848 391.414C389.928 390.902 388.934 390.933 388.061 390.684C387.243 392.277 385.917 393.553 384.299 393.799C382.991 393.998 382.091 392.364 383.28 391.582L383.547 391.417C385.041 390.469 386.316 389.009 386.282 387.108C386.259 385.788 384.405 384.121 383.197 385.361L383.142 385.42C382.132 386.553 380.352 385.126 381.016 383.871L381.048 383.814M143.489 311.266C143.485 310.982 143.886 310.876 144.026 311.121C146.372 315.225 147.598 320.255 148.848 324.776C150.157 329.511 151.213 334.295 152.162 339.114C154.085 348.872 155.109 358.574 155.179 368.519C155.188 369.939 152.862 370.317 152.634 368.862C151.123 359.188 149.675 349.504 148.153 339.833C147.387 334.968 146.495 330.123 145.642 325.273M166.713 318.413C166.54 317.847 167.368 317.658 167.58 318.175C172.288 329.665 173.882 342.686 170.86 354.808C170.397 356.662 167.666 355.859 168.015 354.028M227.437 308.203C227.413 307.78 227.966 307.713 228.175 308.005C230.405 311.13 231.331 315.315 235.244 316.93C237.198 317.736 239.397 317.596 241.123 318.957C242.277 319.868 243.163 321.306 242.296 322.686C242.017 323.131 241.235 323.355 240.855 322.87C240.302 322.165 240.009 321.32 239.257 320.791C238.197 320.045 236.767 319.999 235.551 319.648C233.978 319.195 232.592 318.402 231.457 317.223M264.704 256.082C264.933 255.966 265.154 256.04 265.301 256.238C265.511 256.52 265.485 256.794 265.228 256.987C265.572 257.685 265.977 259.433 266.035 259.688C266.27 260.72 266.52 261.745 266.781 262.77C267.309 264.838 267.771 266.921 268.299 268.989C268.858 271.181 269.525 273.349 270.267 275.487C270.315 275.625 270.367 275.766 270.422 275.91L270.507 276.126L270.528 276.093C270.679 275.856 270.992 276.022 270.955 276.272C270.921 276.501 270.874 276.728 270.835 276.956L270.913 277.16C271.398 278.459 271.731 279.827 270.84 280.973C270.507 281.401 270.14 281.655 269.684 281.73C268.951 284.131 268.033 286.486 267.049 288.749L266.761 289.409C265.314 292.71 263.77 295.968 261.467 298.778C258.951 301.846 255.491 303.941 253.3 307.303C252.281 308.867 251.571 310.511 250.996 312.277L250.779 312.948C250.37 314.197 249.899 315.407 248.72 316.14C248.344 316.374 247.781 316.299 247.478 315.981C245.061 313.439 247.591 308.692 249.048 306.231C251.074 302.809 254.006 300.62 256.941 298.038C260.106 295.255 262.124 291.532 264.077 287.864C265.273 285.617 266.427 283.322 267.643 281.065C266.373 279.949 265.966 277.733 265.536 276.192L265.497 276.054C264.786 273.586 264.221 271.055 263.864 268.512C263.52 266.067 263.377 263.658 263.468 261.199L263.494 260.573M269.425 267.718C269.145 267.336 269.609 266.903 269.994 266.983C272.334 267.464 274.623 268.872 276.723 270.011L276.948 270.132C278.625 271.031 280.312 272.133 281.192 273.879C282.15 275.778 282.071 277.964 281.94 280.027L281.928 280.22C281.768 282.694 281.742 285.264 281.216 287.694C280.946 288.937 279.814 289.287 278.845 288.993C277.693 292.611 274.456 295.276 272.092 298.13C269.078 301.769 269.645 306.682 269.96 311.065C270.088 312.84 267.868 313.344 266.724 312.397L264.089 310.221C263.651 309.858 263.212 309.494 262.775 309.129C262.401 308.816 262.03 308.5 261.662 308.181L261.113 307.698C260.869 307.481 259.794 306.287 259.48 306.238C258.718 306.117 256.909 308.113 256.29 308.738L256.212 308.816C255.047 309.952 253.994 311.175 253.013 312.471C252.833 312.709 252.48 312.511 252.609 312.236C253.488 310.365 254.51 308.576 255.723 306.901L255.968 306.568C256.775 305.486 257.859 303.577 259.283 303.257C261.023 302.867 262.76 304.602 264.026 305.565L264.106 305.625C264.708 306.074 265.303 306.531 265.897 306.991C265.835 303.728 266.25 300.431 267.944 297.619C269.139 295.636 270.929 294.167 272.461 292.463C274.166 290.565 275.056 288.233 276.6 286.257C276.799 286.002 277.073 285.865 277.37 285.822C277.429 284.233 277.664 282.628 277.846 281.057L277.899 280.586C278.083 278.879 278.517 276.793 277.676 275.194C276.882 273.683 275.059 272.617 273.71 271.592L272.608 270.742M193.465 249.661C192.76 250.067 192.102 250.571 191.504 251.201C189.623 253.185 188.278 255.654 186.97 258.029C186.265 259.308 185.586 260.601 184.875 261.877C184.566 262.433 184.248 262.982 183.927 263.53C183.779 263.783 183.337 264.285 183.118 264.594C183.362 264.933 183.613 265.266 183.869 265.596C183.967 265.722 190.715 273.03 193.067 275.891C196.668 280.272 199.888 284.9 202.64 289.853C205.335 294.703 207.387 299.839 209.883 304.783C211.133 307.259 212.528 309.717 214.307 311.859C214.376 311.943 214.449 312.022 214.519 312.104C215.198 310.281 216.937 308.328 217.792 307.207L217.872 307.101C219.81 304.504 221.856 301.985 223.947 299.509C225.857 297.247 227.815 295.035 229.821 292.859L230.575 292.045C231.973 290.544 233.748 288.299 235.793 287.226C235.574 286.838 235.321 286.453 235.029 286.074C233.112 283.584 230.403 281.777 227.729 280.146L225.996 279.097C219.46 275.137 213.027 270.994 207.353 265.849C204.351 263.127 201.391 260.275 198.868 257.1L197.975 255.977M204.37 247.701C201.309 247.956 198.004 247.896 195.176 248.887C197.69 251.25 200.08 253.802 202.535 256.205C202.754 254.58 203.201 252.974 203.579 251.39" fill="black"/>
<path fill-rule="evenodd" clip-rule="evenodd" d="M168.808 107.765C170.794 105.642 173.334 104.06 176.111 103.554C173.573 104.817 171.092 106.134 168.808 107.765ZM164.917 126.076C164.566 124.458 164.33 122.824 164.256 121.19C164.7 121.863 165.409 122.312 166.205 122.544C165.691 123.691 165.253 124.873 164.917 126.076ZM297.824 151.45C295.531 141.942 284.835 123.653 282.307 120.133C279.562 111.416 294.534 104.426 286.391 97.6105C282.705 94.5351 277.832 93.4468 273.262 92.3562C241.615 84.7836 207.613 88.6027 178.262 102.528C173.798 101.592 169.146 103.421 165.9 106.634C150.647 121.909 171.434 149.469 175.979 166.69C183.777 185.891 167.713 189.121 169.436 205.367C170.774 213.76 179.306 215.978 186.506 217.247C187.66 217.516 189.203 217.556 189.575 218.771C190.742 225.866 194.741 232.627 200.11 237.215C199.641 238.601 199.999 240.284 201.655 241.501C216.656 252.608 235.571 258.167 254.281 257.168C276.578 255.977 288.109 243.243 290.891 239.965C306.276 219.264 304.437 191.951 301.299 167.28C299.113 150.095 301.885 168.295 297.824 151.45Z" fill="#694D3D"/>
<path fill-rule="evenodd" clip-rule="evenodd" d="M229.071 72.3299C229.772 70.1471 231.756 68.8344 234.027 69.1054C236.038 69.3419 238.19 71.3301 237.945 73.5243C237.899 73.9479 237.838 74.3448 237.765 74.7188L237.775 74.7221L237.784 74.7226L237.735 74.8676C237.585 75.5659 237.378 76.1918 237.072 76.7832C236.681 77.9166 236.306 79.0538 235.935 80.1948C236.471 80.1719 237.018 80.2024 237.574 80.3055C238.148 78.8401 238.727 77.3785 239.301 75.9094C239.918 74.341 240.35 72.3261 241.568 71.1126C243.127 69.5633 245.831 69.2427 247.731 70.3494C249.738 71.5171 250.454 73.593 250.017 75.8178C249.795 76.9526 249.034 77.7423 248.093 78.2385L247.991 78.2906L247.267 80.0002C247.489 79.9048 247.719 79.817 247.968 79.7445C248.359 79.63 248.742 79.5575 249.117 79.527C250.151 77.6609 251.289 75.8483 252.465 74.07C253.817 72.0246 256.459 71.1546 258.677 72.4482C260.661 73.6045 261.725 76.642 260.304 78.6378C259.224 80.1528 258.202 81.6983 257.195 83.2591C257.367 83.2896 257.539 83.3278 257.704 83.3774C257.781 83.2743 257.861 83.1713 257.945 83.0683C259.044 81.7098 260.324 80.6909 261.637 79.5613C262.867 78.5005 263.433 76.8328 265.05 76.0277C267.083 75.0164 269.535 75.501 270.745 77.5159C273.342 81.8319 268.983 84.9839 266.195 87.5979C268.619 86.0906 271.143 84.713 273.732 83.5224C275.188 82.8546 276.666 82.2097 278.167 81.6525C280.392 80.8283 282.192 81.0919 284.019 82.6256C284.835 83.3125 285.241 84.8126 284.866 85.812C284.138 87.7277 282.989 88.8916 280.975 89.4449C279.557 89.8341 278.106 90.0974 276.689 90.5057C274.314 91.185 272.009 92.0131 269.772 93.0472C269.933 93.1465 270.086 93.2533 270.228 93.3754C271.898 92.8374 273.598 92.3718 275.306 91.9749C278.139 91.3131 281.023 90.8659 283.919 90.5862L284.881 90.4969C288.353 90.165 292.528 89.5523 294.659 92.8641C295.36 93.9555 295.436 95.7566 294.659 96.8366C293.173 98.9125 291.695 99.3246 289.236 99.3628C291.656 99.6185 294.073 99.9352 296.478 100.305C298.136 100.557 299.794 100.843 301.444 101.159L302.269 101.32C304.28 101.721 306.524 101.954 308.251 103.114C312.02 105.648 310.251 110.582 306.076 111.109C304.058 111.36 301.817 110.509 299.837 110.113C297.914 109.727 295.984 109.388 294.046 109.09C293.043 108.933 292.039 108.796 291.032 108.67C293.081 108.964 295.115 109.38 297.095 109.968L297.645 110.133C301.473 111.295 306.64 113.147 307.834 117.222C308.558 119.699 306.578 121.858 304.18 122.003C301.951 122.137 300.094 120.813 298.202 119.836C296.823 119.126 295.421 118.596 293.935 118.142C292.399 117.672 290.833 117.283 289.255 116.966C290.588 117.698 291.887 118.503 293.134 119.403L293.707 119.825C297.02 122.284 302.073 126.093 300.906 130.704C300.538 132.158 298.91 133.547 297.348 133.398C293.28 133.02 291.036 128.704 287.968 126.392C287.168 125.789 286.291 125.194 285.371 124.614C290.021 130.139 293.721 136.527 296.536 143.125C302.722 157.641 304.62 171.083 304.666 186.69L304.667 187.174C304.674 195.783 304.479 204.548 303.636 213.119C302.855 221.037 301.423 228.853 297.819 236.023C291.779 248.047 280.009 257.412 267.03 260.976C252.587 264.945 236.444 261.842 224.613 252.684C221.595 250.349 225.598 245.277 228.681 247.433C240.994 256.038 256.919 258.763 271.051 252.94C282.261 248.322 291.289 238.389 295.115 226.952C297.55 219.677 298.259 211.919 299.128 204.336L299.186 203.831C300.105 195.901 300.637 187.918 300.63 179.935C300.618 165.109 298.481 152.906 291.936 139.458C288.857 133.123 284.862 127.266 280.09 122.126C278.642 122.419 277.103 122.007 275.639 121.851C274.893 121.771 274.146 121.694 273.399 121.626C274.162 122.117 274.91 122.628 275.646 123.151L276.61 123.844C279.629 125.998 283.459 128.452 282.683 132.616C282.472 133.742 281.346 134.776 280.255 135.031C276.298 135.97 273.579 132.139 270.906 129.864C268.581 127.888 266.149 126.117 263.671 124.343C263.108 123.942 262.541 123.541 261.97 123.144C262.507 123.767 263.028 124.4 263.537 125.038L264.289 125.988C266.565 128.825 269.846 132.513 267.819 136.191C267.244 137.229 266.019 137.92 264.831 137.897C260.749 137.813 259.125 133.196 257.21 130.28C255.563 127.781 253.774 125.426 251.925 123.072C251.415 122.427 250.902 121.782 250.381 121.137C241.806 121.58 233.261 122.709 224.866 124.514C219.098 125.755 213.426 127.362 207.796 129.12L207.328 129.269C204.281 130.246 201.142 131.497 198.945 133.642C198.632 135.12 198.872 136.679 199.172 138.155L199.406 139.285C200.369 144.01 201.026 148.647 200.535 153.497C200.025 158.5 198.512 162.999 196.666 167.647C195.793 169.838 194.889 169.441 194.579 171.791C194.341 173.582 194.488 175.43 194.651 177.236L194.786 178.766C195.127 182.776 195.298 187.147 192.66 190.456C192.25 190.963 191.373 190.761 191.082 190.253C190.967 190.051 190.845 189.857 190.711 189.67C189.439 187.834 187.49 186.788 185.261 186.384C184.977 186.334 185.088 185.957 185.326 185.926C187.21 185.705 188.995 186.174 190.512 187.143C189.792 184.665 184.224 185.87 182.394 186.352L182.331 186.369C180.048 186.979 177.888 187.971 175.985 189.376C172.155 192.2 169.941 196.603 170.052 201.347C170.163 206.01 172.58 210.318 176.732 212.551C178.735 213.627 181.013 214.146 183.281 214.123C185.648 214.1 187.754 213.066 190.125 213.211C191.496 213.295 192.545 214.76 191.752 216.038C191.224 216.893 190.535 217.565 189.738 218.08C191.68 222.541 194.158 226.796 197.015 230.723C198.597 232.902 200.389 234.913 202.361 236.748C203.901 238.183 207.237 239.843 207.049 242.236C206.984 243.098 206.536 243.625 205.747 243.945C203.294 244.944 200.312 241.504 198.671 239.845L198.539 239.713C196.494 237.683 194.629 235.439 193.005 233.058C190.125 228.83 188.336 224.064 187.597 219.057C183.664 220.236 178.455 219.129 175.245 217.683C165.157 213.142 161.86 199.607 167.992 190.593C169.179 188.849 170.665 187.357 172.358 186.151C171.986 185.949 171.638 185.689 171.327 185.361C169.611 183.545 168.398 181.175 167.194 178.99L167.049 178.729C165.98 176.806 164.972 174.852 164.027 172.869L163.675 172.123C161.565 167.601 159.715 165.625 158.21 160.87C156.762 156.283 155.621 151.608 154.882 146.853L154.685 145.595C154.258 142.836 153.854 139.886 154.166 137.084C152.017 137.783 149.857 138.214 147.731 137.165C146.33 136.474 145.556 134.459 146.035 133.013C146.383 131.948 146.965 131.112 147.704 130.456C147.264 130.235 146.85 129.952 146.487 129.639L146.169 129.365C144.882 128.25 144.79 126.132 145.571 124.736C145.648 124.602 145.724 124.465 145.797 124.331C146.54 123.007 148.076 122.141 149.593 122.164C149.838 122.167 150.083 122.167 150.332 122.164C149.623 122.007 148.93 121.767 148.271 121.362C145.299 119.542 145.675 114.608 149.271 113.738C150.78 113.375 152.446 113.524 154.108 113.913C154.047 113.879 153.986 113.845 153.924 113.807C152.668 113.04 151.615 111.54 151.734 110.002C151.864 108.3 152.415 107.086 153.924 106.194C155.234 105.423 157.088 105.35 158.39 106.194C159.52 106.93 160.627 107.743 161.691 108.617C160.623 107.308 159.696 105.884 159.321 104.373C158.857 102.492 159.631 100.443 161.331 99.4506C162.687 98.6606 164.12 98.7484 165.399 99.359C165.33 98.3706 165.571 97.3632 166.23 96.4702C167.578 94.6389 170.029 93.5853 172.162 94.9209C172.442 95.0965 172.817 95.3979 173.181 95.7681C172.473 93.5204 173.112 91.1621 175.529 90.147C177.003 89.525 178.999 89.8379 180.278 90.9102C179.466 86.5332 185.95 83.3163 188.47 87.8383C189.042 88.8627 189.608 89.9414 190.114 91.0449L190.301 91.4598L190.32 91.4521L190.191 91.1488L190.06 90.8454C189.359 89.2236 188.466 87.5369 188.221 85.7777C187.861 83.1751 189.026 80.7061 191.867 80.3245C193.334 80.1261 194.966 80.7901 195.95 81.9506C195.418 77.9128 199.945 74.9783 203.204 77.9929C204.747 79.4201 205.571 81.5075 206.551 83.3392C207.107 84.3734 207.674 85.4037 208.229 86.4417C208.371 86.2738 208.524 86.1058 208.685 85.9418C207.861 83.4842 207.222 80.9656 206.682 78.4318C206.168 76.0429 207.367 73.5625 209.841 72.8874C212.089 72.2689 214.904 73.6506 215.406 76.0357C215.759 77.7144 216.176 79.3747 216.636 81.0267C216.95 80.9504 217.26 80.8969 217.566 80.8588C217.592 80.5484 217.621 80.2363 217.653 79.926L217.774 78.8221C218.041 76.2999 218.312 73.4207 219.634 71.2767C221.89 67.6133 227.673 69.1321 227.735 73.4633C227.769 75.7033 226.854 77.9242 226.536 80.1414C226.398 81.1068 226.318 82.0837 226.272 83.0606C226.888 79.817 227.735 76.6153 228.715 73.4633C228.83 73.0855 228.953 72.7077 229.071 72.3299ZM179.175 197.412C184.25 196.63 188.888 199.45 191.894 203.4C192.442 204.121 192.082 205.14 191.588 205.747C191.232 206.193 190.753 206.247 190.213 206.315C189.592 206.395 188.807 205.895 188.535 205.357C186.601 201.511 183.15 199.08 179.175 197.584C179.102 197.557 179.079 197.428 179.175 197.412ZM186.21 128.493L186.363 128.328C187.39 127.267 185.767 125.646 184.738 126.71C183.655 127.829 182.935 129.189 182.242 130.568C181.583 131.882 183.564 133.043 184.227 131.724L184.528 131.124C185.002 130.192 185.507 129.271 186.21 128.493ZM171.958 126.315C173.414 126.071 172.797 123.864 171.347 124.107C169.47 124.422 167.6 124.781 165.722 125.096C164.267 125.341 164.884 127.547 166.333 127.304C168.211 126.989 170.081 126.63 171.958 126.315ZM258.656 111.249C257.25 110.781 256.646 112.992 258.045 113.457C259.977 114.099 261.893 114.757 263.726 115.649C265.05 116.293 266.217 114.319 264.886 113.672C262.874 112.693 260.777 111.954 258.656 111.249ZM171.627 108.281C170.254 107.734 169.658 109.948 171.016 110.489L175.98 112.467C177.353 113.014 177.949 110.801 176.591 110.26L171.627 108.281ZM275.988 102.905L275.806 102.792C274.562 101.988 273.409 103.969 274.646 104.769C275.373 105.238 276.257 105.556 276.922 106.115L277.061 106.238C278.136 107.249 279.764 105.634 278.686 104.619C277.898 103.877 276.9 103.464 275.988 102.905Z" fill="black"/>
<path fill-rule="evenodd" clip-rule="evenodd" d="M260.06 231.606C257.48 230.56 255.178 228.814 253.495 226.584C252.909 225.809 252.758 224.99 252.88 224.241C253.018 223.4 253.519 222.637 254.203 222.125C254.888 221.611 255.745 221.358 256.574 221.487C257.294 221.599 258.011 221.991 258.578 222.804L258.697 222.967C259.697 224.313 261.001 225.417 262.487 226.129C263.919 226.815 265.52 227.135 267.177 226.949C270.334 226.595 272.509 224.897 274.822 222.593C275.108 222.302 275.395 222.001 275.683 221.697C275.865 221.42 276.118 221.242 276.398 221.149C276.71 221.046 277.062 221.052 277.384 221.164C277.695 221.271 277.974 221.476 278.16 221.748C278.337 222.007 278.438 222.327 278.405 222.695C278.194 225.083 276.938 227.215 275.154 228.889C273.172 230.748 270.546 232.034 268.073 232.485C265.349 232.981 262.573 232.626 260.06 231.606ZM269.358 194.758C272.257 196.51 276.673 200.594 273.555 204.937C269.885 208.766 264.601 204.376 261.997 202.39C259.583 200.851 256.87 204.809 259.11 206.606C277.925 220.456 285.561 195.216 270.824 192.699C269.202 192.422 268.599 194.217 269.358 194.758ZM235.641 178.647C235.961 174.695 242.015 173.797 242.617 177.708C243.156 181.211 242.521 184.429 240.934 187.583C239.418 190.596 235.606 189.191 235.318 186.447C234.932 182.769 235.442 181.105 235.641 178.647ZM281.722 176.897C282.566 175.798 283.784 175.048 285.244 175.472C289.806 176.797 288.461 183.236 286.859 186.37C285.989 188.072 283.175 188.504 281.904 187.005C279.831 184.561 278.839 179.681 281.473 177.274C281.545 177.149 281.624 177.024 281.722 176.897ZM240.87 161.354L241.591 161.229C243.82 160.845 246.591 160.477 248.168 162.259C249.004 163.204 249.292 164.96 248.168 165.864C246.191 167.456 244.005 166.839 241.635 166.974C239.682 167.085 237.805 167.406 235.924 167.941C231.798 169.114 228.435 171.254 224.911 173.605C224.448 173.913 223.976 173.325 224.197 172.895C226.231 168.933 230.174 165.678 234.124 163.694C236.231 162.636 238.538 161.757 240.87 161.354ZM277.563 159.579L278.115 159.691C284.117 160.939 291.914 163.43 294.756 169.292C294.864 170.12 294.75 170.298 294.657 170.414L294.626 170.453C294.549 170.552 294.488 170.688 294.127 170.801C294.027 170.777 293.925 170.752 293.823 170.726C292.52 170.386 291.49 169.919 290.492 169.433L289.41 168.903C288.154 168.291 286.888 167.702 285.546 167.266C282.682 166.338 279.736 165.683 276.745 165.334C276.096 165.258 275.472 165.041 274.979 164.668C274.512 164.314 274.155 163.824 273.992 163.172C273.781 162.329 273.841 161.691 274.296 160.931C274.638 160.36 275.128 159.964 275.69 159.736C276.263 159.505 276.915 159.45 277.563 159.579Z" fill="black"/>
<path fill-rule="evenodd" clip-rule="evenodd" d="M277.487 237.477C273.913 234.31 269.906 227.945 264.771 232.982C263.501 234.405 262.987 237.595 261.045 238.221C258.466 239.053 255.91 236.339 255.031 234.256C251.435 222.679 266.301 219.504 274.77 221.374C278.907 223.063 281.955 229.864 282.139 233.412C282.258 235.797 280.228 239.304 277.487 237.477ZM304.453 219.633C304.418 219.479 304.37 219.34 304.311 219.214C302.73 218.62 301.479 219.226 300.706 220.357C300.731 220.639 300.816 220.924 300.869 221.203C300.273 222.452 299.735 223.998 298.926 225.077C298.767 225.09 298.601 225.073 298.442 225.027C285.043 226.418 291.585 212.479 277.994 209.016C267.488 207.293 248.5 209.267 243.544 220.139C239.635 237.506 219.761 225.405 213.235 216.373C206.273 208.154 201.771 198.11 197.43 188.364C196.513 186.301 193.65 187.776 193.961 189.755C189.949 197.758 190.082 207.371 189.089 216.138C187.398 233.628 185.751 258.157 202.096 268.837C223.393 292.77 276.571 301.216 301.134 279.226C309.637 261.05 308.589 238.876 304.453 219.633Z" fill="black"/>
<path fill-rule="evenodd" clip-rule="evenodd" d="M303.707 197.083C299.048 201.87 291.269 203.244 285.069 200.676C269.151 194.063 276.942 173.438 289.219 167.899C290.753 167.519 292.801 166.617 294.669 166.412C294.838 166.33 295.205 166.568 295.651 166.343C309.188 167.846 312.271 188.739 303.707 197.083ZM252.363 198.308C247.137 205.2 237.42 207.326 229.482 204.123C213.799 197.982 219.361 179.692 230.091 172.521C252.758 164.053 262.117 185.6 252.363 198.308ZM218.366 183.037C218.351 183.03 218.337 183.027 218.322 183.02C218.405 182.984 218.487 182.947 218.57 182.91C218.543 182.98 218.514 183.049 218.488 183.119C218.447 183.091 218.411 183.059 218.366 183.037ZM314.497 175.587C313.217 175.59 311.369 175.799 310.31 176.681C307.697 167.922 298.056 159.816 289.67 165.727C283.067 167.838 278.167 172.521 275.382 178.747C270.361 175.777 262.465 177.045 258.111 180.972C255.259 171.603 248.241 168.323 239.888 167.838C230.77 166.354 221.682 175.158 218.847 182.22C216.489 181.954 212.966 181.208 210.748 182.654C196.353 178.901 171.185 176.831 168.258 178.917C166.173 179.712 165.028 184.607 167.941 184.871C170.48 184.513 167.645 181.285 170.204 180.932C183.838 180.092 197.073 182.822 210.563 183.968C211.767 185.578 215.658 186.117 217.734 185.47C214.465 197.451 221.523 205.602 232.099 208.044C248.474 211.784 262.722 197.219 258.439 182.069C263.4 179.615 269.106 179.72 274.51 181.013C265.48 214.056 319.004 212.574 310.644 177.814C316.208 180.565 317.416 176.142 314.497 175.587Z" fill="black"/>
</svg>
